<?xml version="1.0" encoding="utf-8" standalone="no"?>
<!DOCTYPE svg PUBLIC "-//W3C//DTD SVG 1.1//EN"
  "http://www.w3.org/Graphics/SVG/1.1/DTD/svg11.dtd">
<!-- Created with matplotlib (https://matplotlib.org/) -->
<svg height="288pt" version="1.1" viewBox="0 0 432 288" width="432pt" xmlns="http://www.w3.org/2000/svg" xmlns:xlink="http://www.w3.org/1999/xlink">
 <metadata>
  <rdf:RDF xmlns:cc="http://creativecommons.org/ns#" xmlns:dc="http://purl.org/dc/elements/1.1/" xmlns:rdf="http://www.w3.org/1999/02/22-rdf-syntax-ns#">
   <cc:Work>
    <dc:type rdf:resource="http://purl.org/dc/dcmitype/StillImage"/>
    <dc:date>2023-03-17T13:30:51.308203</dc:date>
    <dc:format>image/svg+xml</dc:format>
    <dc:creator>
     <cc:Agent>
      <dc:title>Matplotlib v3.3.3, https://matplotlib.org/</dc:title>
     </cc:Agent>
    </dc:creator>
   </cc:Work>
  </rdf:RDF>
 </metadata>
 <defs>
  <style type="text/css">*{stroke-linecap:butt;stroke-linejoin:round;}</style>
 </defs>
 <g id="figure_1">
  <g id="patch_1">
   <path d="M 0 288 
L 432 288 
L 432 0 
L 0 0 
z
" style="fill:none;"/>
  </g>
  <g id="axes_1">
   <g id="patch_2">
    <path d="M 54 252 
L 388.8 252 
L 388.8 34.56 
L 54 34.56 
z
" style="fill:#ffffff;"/>
   </g>
   <g id="matplotlib.axis_1">
    <g id="xtick_1">
     <g id="line2d_1">
      <defs>
       <path d="M 0 0 
L 0 3.5 
" id="m8237d45e63" style="stroke:#000000;stroke-width:0.8;"/>
      </defs>
      <g>
       <use style="stroke:#000000;stroke-width:0.8;" x="69.218182" xlink:href="#m8237d45e63" y="252"/>
      </g>
     </g>
     <g id="text_1">
      <!-- 0 -->
      <g transform="translate(66.036932 266.598437)scale(0.1 -0.1)">
       <defs>
        <path d="M 31.78125 66.40625 
Q 24.171875 66.40625 20.328125 58.90625 
Q 16.5 51.421875 16.5 36.375 
Q 16.5 21.390625 20.328125 13.890625 
Q 24.171875 6.390625 31.78125 6.390625 
Q 39.453125 6.390625 43.28125 13.890625 
Q 47.125 21.390625 47.125 36.375 
Q 47.125 51.421875 43.28125 58.90625 
Q 39.453125 66.40625 31.78125 66.40625 
z
M 31.78125 74.21875 
Q 44.046875 74.21875 50.515625 64.515625 
Q 56.984375 54.828125 56.984375 36.375 
Q 56.984375 17.96875 50.515625 8.265625 
Q 44.046875 -1.421875 31.78125 -1.421875 
Q 19.53125 -1.421875 13.0625 8.265625 
Q 6.59375 17.96875 6.59375 36.375 
Q 6.59375 54.828125 13.0625 64.515625 
Q 19.53125 74.21875 31.78125 74.21875 
z
" id="DejaVuSans-48"/>
       </defs>
       <use xlink:href="#DejaVuSans-48"/>
      </g>
     </g>
    </g>
    <g id="xtick_2">
     <g id="line2d_2">
      <g>
       <use style="stroke:#000000;stroke-width:0.8;" x="130.090909" xlink:href="#m8237d45e63" y="252"/>
      </g>
     </g>
     <g id="text_2">
      <!-- 2 -->
      <g transform="translate(126.909659 266.598437)scale(0.1 -0.1)">
       <defs>
        <path d="M 19.1875 8.296875 
L 53.609375 8.296875 
L 53.609375 0 
L 7.328125 0 
L 7.328125 8.296875 
Q 12.9375 14.109375 22.625 23.890625 
Q 32.328125 33.6875 34.8125 36.53125 
Q 39.546875 41.84375 41.421875 45.53125 
Q 43.3125 49.21875 43.3125 52.78125 
Q 43.3125 58.59375 39.234375 62.25 
Q 35.15625 65.921875 28.609375 65.921875 
Q 23.96875 65.921875 18.8125 64.3125 
Q 13.671875 62.703125 7.8125 59.421875 
L 7.8125 69.390625 
Q 13.765625 71.78125 18.9375 73 
Q 24.125 74.21875 28.421875 74.21875 
Q 39.75 74.21875 46.484375 68.546875 
Q 53.21875 62.890625 53.21875 53.421875 
Q 53.21875 48.921875 51.53125 44.890625 
Q 49.859375 40.875 45.40625 35.40625 
Q 44.1875 33.984375 37.640625 27.21875 
Q 31.109375 20.453125 19.1875 8.296875 
z
" id="DejaVuSans-50"/>
       </defs>
       <use xlink:href="#DejaVuSans-50"/>
      </g>
     </g>
    </g>
    <g id="xtick_3">
     <g id="line2d_3">
      <g>
       <use style="stroke:#000000;stroke-width:0.8;" x="190.963636" xlink:href="#m8237d45e63" y="252"/>
      </g>
     </g>
     <g id="text_3">
      <!-- 4 -->
      <g transform="translate(187.782386 266.598437)scale(0.1 -0.1)">
       <defs>
        <path d="M 37.796875 64.3125 
L 12.890625 25.390625 
L 37.796875 25.390625 
z
M 35.203125 72.90625 
L 47.609375 72.90625 
L 47.609375 25.390625 
L 58.015625 25.390625 
L 58.015625 17.1875 
L 47.609375 17.1875 
L 47.609375 0 
L 37.796875 0 
L 37.796875 17.1875 
L 4.890625 17.1875 
L 4.890625 26.703125 
z
" id="DejaVuSans-52"/>
       </defs>
       <use xlink:href="#DejaVuSans-52"/>
      </g>
     </g>
    </g>
    <g id="xtick_4">
     <g id="line2d_4">
      <g>
       <use style="stroke:#000000;stroke-width:0.8;" x="251.836364" xlink:href="#m8237d45e63" y="252"/>
      </g>
     </g>
     <g id="text_4">
      <!-- 6 -->
      <g transform="translate(248.655114 266.598437)scale(0.1 -0.1)">
       <defs>
        <path d="M 33.015625 40.375 
Q 26.375 40.375 22.484375 35.828125 
Q 18.609375 31.296875 18.609375 23.390625 
Q 18.609375 15.53125 22.484375 10.953125 
Q 26.375 6.390625 33.015625 6.390625 
Q 39.65625 6.390625 43.53125 10.953125 
Q 47.40625 15.53125 47.40625 23.390625 
Q 47.40625 31.296875 43.53125 35.828125 
Q 39.65625 40.375 33.015625 40.375 
z
M 52.59375 71.296875 
L 52.59375 62.3125 
Q 48.875 64.0625 45.09375 64.984375 
Q 41.3125 65.921875 37.59375 65.921875 
Q 27.828125 65.921875 22.671875 59.328125 
Q 17.53125 52.734375 16.796875 39.40625 
Q 19.671875 43.65625 24.015625 45.921875 
Q 28.375 48.1875 33.59375 48.1875 
Q 44.578125 48.1875 50.953125 41.515625 
Q 57.328125 34.859375 57.328125 23.390625 
Q 57.328125 12.15625 50.6875 5.359375 
Q 44.046875 -1.421875 33.015625 -1.421875 
Q 20.359375 -1.421875 13.671875 8.265625 
Q 6.984375 17.96875 6.984375 36.375 
Q 6.984375 53.65625 15.1875 63.9375 
Q 23.390625 74.21875 37.203125 74.21875 
Q 40.921875 74.21875 44.703125 73.484375 
Q 48.484375 72.75 52.59375 71.296875 
z
" id="DejaVuSans-54"/>
       </defs>
       <use xlink:href="#DejaVuSans-54"/>
      </g>
     </g>
    </g>
    <g id="xtick_5">
     <g id="line2d_5">
      <g>
       <use style="stroke:#000000;stroke-width:0.8;" x="312.709091" xlink:href="#m8237d45e63" y="252"/>
      </g>
     </g>
     <g id="text_5">
      <!-- 8 -->
      <g transform="translate(309.527841 266.598437)scale(0.1 -0.1)">
       <defs>
        <path d="M 31.78125 34.625 
Q 24.75 34.625 20.71875 30.859375 
Q 16.703125 27.09375 16.703125 20.515625 
Q 16.703125 13.921875 20.71875 10.15625 
Q 24.75 6.390625 31.78125 6.390625 
Q 38.8125 6.390625 42.859375 10.171875 
Q 46.921875 13.96875 46.921875 20.515625 
Q 46.921875 27.09375 42.890625 30.859375 
Q 38.875 34.625 31.78125 34.625 
z
M 21.921875 38.8125 
Q 15.578125 40.375 12.03125 44.71875 
Q 8.5 49.078125 8.5 55.328125 
Q 8.5 64.0625 14.71875 69.140625 
Q 20.953125 74.21875 31.78125 74.21875 
Q 42.671875 74.21875 48.875 69.140625 
Q 55.078125 64.0625 55.078125 55.328125 
Q 55.078125 49.078125 51.53125 44.71875 
Q 48 40.375 41.703125 38.8125 
Q 48.828125 37.15625 52.796875 32.3125 
Q 56.78125 27.484375 56.78125 20.515625 
Q 56.78125 9.90625 50.3125 4.234375 
Q 43.84375 -1.421875 31.78125 -1.421875 
Q 19.734375 -1.421875 13.25 4.234375 
Q 6.78125 9.90625 6.78125 20.515625 
Q 6.78125 27.484375 10.78125 32.3125 
Q 14.796875 37.15625 21.921875 38.8125 
z
M 18.3125 54.390625 
Q 18.3125 48.734375 21.84375 45.5625 
Q 25.390625 42.390625 31.78125 42.390625 
Q 38.140625 42.390625 41.71875 45.5625 
Q 45.3125 48.734375 45.3125 54.390625 
Q 45.3125 60.0625 41.71875 63.234375 
Q 38.140625 66.40625 31.78125 66.40625 
Q 25.390625 66.40625 21.84375 63.234375 
Q 18.3125 60.0625 18.3125 54.390625 
z
" id="DejaVuSans-56"/>
       </defs>
       <use xlink:href="#DejaVuSans-56"/>
      </g>
     </g>
    </g>
    <g id="xtick_6">
     <g id="line2d_6">
      <g>
       <use style="stroke:#000000;stroke-width:0.8;" x="373.581818" xlink:href="#m8237d45e63" y="252"/>
      </g>
     </g>
     <g id="text_6">
      <!-- 10 -->
      <g transform="translate(367.219318 266.598437)scale(0.1 -0.1)">
       <defs>
        <path d="M 12.40625 8.296875 
L 28.515625 8.296875 
L 28.515625 63.921875 
L 10.984375 60.40625 
L 10.984375 69.390625 
L 28.421875 72.90625 
L 38.28125 72.90625 
L 38.28125 8.296875 
L 54.390625 8.296875 
L 54.390625 0 
L 12.40625 0 
z
" id="DejaVuSans-49"/>
       </defs>
       <use xlink:href="#DejaVuSans-49"/>
       <use x="63.623047" xlink:href="#DejaVuSans-48"/>
      </g>
     </g>
    </g>
   </g>
   <g id="matplotlib.axis_2">
    <g id="ytick_1">
     <g id="line2d_7">
      <defs>
       <path d="M 0 0 
L -3.5 0 
" id="mc4c0975627" style="stroke:#000000;stroke-width:0.8;"/>
      </defs>
      <g>
       <use style="stroke:#000000;stroke-width:0.8;" x="54" xlink:href="#mc4c0975627" y="242.116364"/>
      </g>
     </g>
     <g id="text_7">
      <!-- 0.0 -->
      <g transform="translate(31.096875 245.915582)scale(0.1 -0.1)">
       <defs>
        <path d="M 10.6875 12.40625 
L 21 12.40625 
L 21 0 
L 10.6875 0 
z
" id="DejaVuSans-46"/>
       </defs>
       <use xlink:href="#DejaVuSans-48"/>
       <use x="63.623047" xlink:href="#DejaVuSans-46"/>
       <use x="95.410156" xlink:href="#DejaVuSans-48"/>
      </g>
     </g>
    </g>
    <g id="ytick_2">
     <g id="line2d_8">
      <g>
       <use style="stroke:#000000;stroke-width:0.8;" x="54" xlink:href="#mc4c0975627" y="215.951721"/>
      </g>
     </g>
     <g id="text_8">
      <!-- 0.5 -->
      <g transform="translate(31.096875 219.75094)scale(0.1 -0.1)">
       <defs>
        <path d="M 10.796875 72.90625 
L 49.515625 72.90625 
L 49.515625 64.59375 
L 19.828125 64.59375 
L 19.828125 46.734375 
Q 21.96875 47.46875 24.109375 47.828125 
Q 26.265625 48.1875 28.421875 48.1875 
Q 40.625 48.1875 47.75 41.5 
Q 54.890625 34.8125 54.890625 23.390625 
Q 54.890625 11.625 47.5625 5.09375 
Q 40.234375 -1.421875 26.90625 -1.421875 
Q 22.3125 -1.421875 17.546875 -0.640625 
Q 12.796875 0.140625 7.71875 1.703125 
L 7.71875 11.625 
Q 12.109375 9.234375 16.796875 8.0625 
Q 21.484375 6.890625 26.703125 6.890625 
Q 35.15625 6.890625 40.078125 11.328125 
Q 45.015625 15.765625 45.015625 23.390625 
Q 45.015625 31 40.078125 35.4375 
Q 35.15625 39.890625 26.703125 39.890625 
Q 22.75 39.890625 18.8125 39.015625 
Q 14.890625 38.140625 10.796875 36.28125 
z
" id="DejaVuSans-53"/>
       </defs>
       <use xlink:href="#DejaVuSans-48"/>
       <use x="63.623047" xlink:href="#DejaVuSans-46"/>
       <use x="95.410156" xlink:href="#DejaVuSans-53"/>
      </g>
     </g>
    </g>
    <g id="ytick_3">
     <g id="line2d_9">
      <g>
       <use style="stroke:#000000;stroke-width:0.8;" x="54" xlink:href="#mc4c0975627" y="189.787079"/>
      </g>
     </g>
     <g id="text_9">
      <!-- 1.0 -->
      <g transform="translate(31.096875 193.586298)scale(0.1 -0.1)">
       <use xlink:href="#DejaVuSans-49"/>
       <use x="63.623047" xlink:href="#DejaVuSans-46"/>
       <use x="95.410156" xlink:href="#DejaVuSans-48"/>
      </g>
     </g>
    </g>
    <g id="ytick_4">
     <g id="line2d_10">
      <g>
       <use style="stroke:#000000;stroke-width:0.8;" x="54" xlink:href="#mc4c0975627" y="163.622437"/>
      </g>
     </g>
     <g id="text_10">
      <!-- 1.5 -->
      <g transform="translate(31.096875 167.421655)scale(0.1 -0.1)">
       <use xlink:href="#DejaVuSans-49"/>
       <use x="63.623047" xlink:href="#DejaVuSans-46"/>
       <use x="95.410156" xlink:href="#DejaVuSans-53"/>
      </g>
     </g>
    </g>
    <g id="ytick_5">
     <g id="line2d_11">
      <g>
       <use style="stroke:#000000;stroke-width:0.8;" x="54" xlink:href="#mc4c0975627" y="137.457794"/>
      </g>
     </g>
     <g id="text_11">
      <!-- 2.0 -->
      <g transform="translate(31.096875 141.257013)scale(0.1 -0.1)">
       <use xlink:href="#DejaVuSans-50"/>
       <use x="63.623047" xlink:href="#DejaVuSans-46"/>
       <use x="95.410156" xlink:href="#DejaVuSans-48"/>
      </g>
     </g>
    </g>
    <g id="ytick_6">
     <g id="line2d_12">
      <g>
       <use style="stroke:#000000;stroke-width:0.8;" x="54" xlink:href="#mc4c0975627" y="111.293152"/>
      </g>
     </g>
     <g id="text_12">
      <!-- 2.5 -->
      <g transform="translate(31.096875 115.092371)scale(0.1 -0.1)">
       <use xlink:href="#DejaVuSans-50"/>
       <use x="63.623047" xlink:href="#DejaVuSans-46"/>
       <use x="95.410156" xlink:href="#DejaVuSans-53"/>
      </g>
     </g>
    </g>
    <g id="ytick_7">
     <g id="line2d_13">
      <g>
       <use style="stroke:#000000;stroke-width:0.8;" x="54" xlink:href="#mc4c0975627" y="85.128509"/>
      </g>
     </g>
     <g id="text_13">
      <!-- 3.0 -->
      <g transform="translate(31.096875 88.927728)scale(0.1 -0.1)">
       <defs>
        <path d="M 40.578125 39.3125 
Q 47.65625 37.796875 51.625 33 
Q 55.609375 28.21875 55.609375 21.1875 
Q 55.609375 10.40625 48.1875 4.484375 
Q 40.765625 -1.421875 27.09375 -1.421875 
Q 22.515625 -1.421875 17.65625 -0.515625 
Q 12.796875 0.390625 7.625 2.203125 
L 7.625 11.71875 
Q 11.71875 9.328125 16.59375 8.109375 
Q 21.484375 6.890625 26.8125 6.890625 
Q 36.078125 6.890625 40.9375 10.546875 
Q 45.796875 14.203125 45.796875 21.1875 
Q 45.796875 27.640625 41.28125 31.265625 
Q 36.765625 34.90625 28.71875 34.90625 
L 20.21875 34.90625 
L 20.21875 43.015625 
L 29.109375 43.015625 
Q 36.375 43.015625 40.234375 45.921875 
Q 44.09375 48.828125 44.09375 54.296875 
Q 44.09375 59.90625 40.109375 62.90625 
Q 36.140625 65.921875 28.71875 65.921875 
Q 24.65625 65.921875 20.015625 65.03125 
Q 15.375 64.15625 9.8125 62.3125 
L 9.8125 71.09375 
Q 15.4375 72.65625 20.34375 73.4375 
Q 25.25 74.21875 29.59375 74.21875 
Q 40.828125 74.21875 47.359375 69.109375 
Q 53.90625 64.015625 53.90625 55.328125 
Q 53.90625 49.265625 50.4375 45.09375 
Q 46.96875 40.921875 40.578125 39.3125 
z
" id="DejaVuSans-51"/>
       </defs>
       <use xlink:href="#DejaVuSans-51"/>
       <use x="63.623047" xlink:href="#DejaVuSans-46"/>
       <use x="95.410156" xlink:href="#DejaVuSans-48"/>
      </g>
     </g>
    </g>
    <g id="ytick_8">
     <g id="line2d_14">
      <g>
       <use style="stroke:#000000;stroke-width:0.8;" x="54" xlink:href="#mc4c0975627" y="58.963867"/>
      </g>
     </g>
     <g id="text_14">
      <!-- 3.5 -->
      <g transform="translate(31.096875 62.763086)scale(0.1 -0.1)">
       <use xlink:href="#DejaVuSans-51"/>
       <use x="63.623047" xlink:href="#DejaVuSans-46"/>
       <use x="95.410156" xlink:href="#DejaVuSans-53"/>
      </g>
     </g>
    </g>
   </g>
   <g id="line2d_15">
    <path clip-path="url(#p602011515c)" d="M 69.218182 242.116364 
L 75.336044 232.696829 
L 81.453906 223.515743 
L 84.512837 219.864998 
L 86.042302 218.217768 
L 89.101233 215.599726 
L 92.160164 213.690598 
L 95.219095 212.293037 
L 98.278026 211.246671 
L 101.336958 210.4695 
L 105.925354 209.599349 
L 110.513751 208.957246 
L 116.631613 208.312433 
L 124.27894 207.693052 
L 133.455733 207.115965 
L 153.338785 206.169783 
L 174.751302 205.343094 
L 229.81206 203.577152 
L 330.756784 200.716119 
L 373.581818 199.555664 
L 373.581818 199.555664 
" style="fill:none;stroke:#1f77b4;stroke-linecap:square;stroke-width:1.5;"/>
   </g>
   <g id="line2d_16">
    <path clip-path="url(#p602011515c)" d="M 69.218182 242.116364 
L 78.394975 227.60918 
L 84.512837 217.96246 
L 92.160164 207.188953 
L 96.748561 201.626045 
L 99.807492 198.381127 
L 101.336958 196.834618 
L 104.395889 194.194748 
L 105.925354 192.938629 
L 110.513751 189.898039 
L 113.572682 188.202201 
L 118.161078 186.116592 
L 124.27894 184.018811 
L 128.867337 182.722357 
L 134.985199 181.334727 
L 144.161992 179.810586 
L 153.338785 178.646957 
L 164.045043 177.592399 
L 179.339698 176.438578 
L 199.22275 175.251799 
L 223.694198 174.046073 
L 257.342439 172.640635 
L 303.226405 170.975911 
L 367.463956 168.899513 
L 373.581818 168.71203 
L 373.581818 168.71203 
" style="fill:none;stroke:#ff7f0e;stroke-linecap:square;stroke-width:1.5;"/>
   </g>
   <g id="line2d_17">
    <path clip-path="url(#p602011515c)" d="M 69.218182 242.116364 
L 81.453906 222.591889 
L 87.571768 212.951735 
L 96.748561 199.441137 
L 104.395889 189.374673 
L 108.984285 183.955237 
L 113.572682 179.209886 
L 116.631613 176.423586 
L 119.690544 173.82084 
L 124.27894 170.428696 
L 128.867337 167.500169 
L 134.985199 164.307627 
L 141.103061 161.61372 
L 148.750388 158.85017 
L 156.397716 156.583154 
L 165.574509 154.366822 
L 177.810233 152.101715 
L 191.575423 150.125959 
L 209.929009 148.066124 
L 232.870991 146.049159 
L 264.989767 143.852306 
L 307.814801 141.519365 
L 365.934491 138.931887 
L 373.581818 138.640494 
L 373.581818 138.640494 
" style="fill:none;stroke:#2ca02c;stroke-linecap:square;stroke-width:1.5;"/>
   </g>
   <g id="line2d_18">
    <path clip-path="url(#p602011515c)" d="M 69.218182 242.116364 
L 82.983371 220.088288 
L 89.101233 210.486211 
L 98.278026 196.769666 
L 105.925354 186.271227 
L 112.043216 178.710035 
L 118.161078 172.066914 
L 122.749475 167.701044 
L 127.337871 163.885388 
L 130.396802 161.623665 
L 133.455733 159.470448 
L 139.573595 155.803428 
L 147.220923 152.02635 
L 153.338785 149.403469 
L 162.515578 146.184471 
L 171.692371 143.50472 
L 183.928095 140.677018 
L 197.693285 138.159984 
L 216.046871 135.507868 
L 238.988853 132.889696 
L 271.107629 130.048865 
L 312.403198 127.177363 
L 370.522887 123.982892 
L 373.581818 123.844452 
L 373.581818 123.844452 
" style="fill:none;stroke:#d62728;stroke-linecap:square;stroke-width:1.5;"/>
   </g>
   <g id="line2d_19">
    <path clip-path="url(#p602011515c)" d="M 69.218182 242.116364 
L 84.512837 217.6164 
L 89.101233 210.415074 
L 99.807492 194.430226 
L 107.45482 183.896665 
L 113.572682 176.231419 
L 119.690544 169.470008 
L 125.808406 163.618099 
L 130.396802 159.74276 
L 136.514664 155.378317 
L 142.632526 151.647638 
L 148.750388 148.457323 
L 156.397716 145.034084 
L 164.045043 142.153957 
L 174.751302 138.821368 
L 185.457561 136.097098 
L 200.752216 133.05647 
L 219.105802 130.163248 
L 242.047784 127.280033 
L 274.16656 124.147125 
L 315.462129 120.98653 
L 373.581818 117.495005 
L 373.581818 117.495005 
" style="fill:none;stroke:#9467bd;stroke-linecap:square;stroke-width:1.5;"/>
   </g>
   <g id="line2d_20">
    <path clip-path="url(#p602011515c)" d="M 69.218182 242.116364 
L 84.512837 217.597815 
L 89.101233 210.367431 
L 99.807492 194.270636 
L 108.984285 181.62851 
L 115.102147 173.966423 
L 121.220009 167.156963 
L 125.808406 162.570235 
L 131.926268 157.281593 
L 138.04413 152.806848 
L 144.161992 148.954224 
L 150.279854 145.655466 
L 157.927181 142.079404 
L 167.103974 138.560081 
L 176.280767 135.556087 
L 188.516492 132.324534 
L 202.281681 129.40443 
L 222.164733 126.093727 
L 245.106715 123.037902 
L 275.696026 119.824702 
L 316.991594 116.428058 
L 373.581818 112.768108 
L 373.581818 112.768108 
" style="fill:none;stroke:#8c564b;stroke-linecap:square;stroke-width:1.5;"/>
   </g>
   <g id="line2d_21">
    <path clip-path="url(#p602011515c)" d="M 69.218182 242.116364 
L 84.512837 217.593543 
L 89.101233 210.356641 
L 99.807492 194.234529 
L 108.984285 181.549687 
L 115.102147 173.839198 
L 121.220009 166.970471 
L 127.337871 160.97073 
L 131.926268 156.971774 
L 138.04413 152.433647 
L 144.161992 148.515639 
L 150.279854 145.167312 
L 157.927181 141.525281 
L 167.103974 137.950006 
L 176.280767 134.886198 
L 188.516492 131.587926 
L 203.811147 128.340493 
L 222.164733 125.231248 
L 245.106715 122.114104 
L 275.696026 118.836295 
L 318.52106 115.275106 
L 373.581818 111.650801 
L 373.581818 111.650801 
" style="fill:none;stroke:#e377c2;stroke-linecap:square;stroke-width:1.5;"/>
   </g>
   <g id="line2d_22">
    <path clip-path="url(#p602011515c)" d="M 69.218182 242.116364 
L 84.512837 217.589404 
L 89.101233 210.346245 
L 99.807492 194.199747 
L 108.984285 181.473667 
L 115.102147 173.716445 
L 121.220009 166.790102 
L 127.337871 160.726946 
L 131.926268 156.689198 
L 138.04413 152.070903 
L 144.161992 148.087984 
L 151.809319 143.947499 
L 157.927181 140.985376 
L 167.103974 137.354395 
L 177.810233 133.806744 
L 188.516492 130.867875 
L 203.811147 127.557299 
L 222.164733 124.387035 
L 245.106715 121.209295 
L 277.225491 117.734634 
L 318.52106 114.24229 
L 373.581818 110.552598 
L 373.581818 110.552598 
" style="fill:none;stroke:#7f7f7f;stroke-linecap:square;stroke-width:1.5;"/>
   </g>
   <g id="line2d_23">
    <path clip-path="url(#p602011515c)" d="M 69.218182 242.116364 
L 86.042302 215.121649 
L 89.101233 210.307568 
L 101.336958 191.913756 
L 108.984285 181.189821 
L 116.631613 171.488584 
L 122.749475 164.542343 
L 127.337871 159.835341 
L 133.455733 154.34452 
L 139.573595 149.654342 
L 145.691457 145.57528 
L 153.338785 141.32805 
L 159.456647 138.267938 
L 168.63344 134.509779 
L 179.339698 130.811291 
L 191.575423 127.364708 
L 205.340612 124.227483 
L 223.694198 120.870218 
L 248.165646 117.31885 
L 278.754957 113.800551 
L 320.050525 110.0827 
L 373.581818 106.235646 
L 373.581818 106.235646 
" style="fill:none;stroke:#bcbd22;stroke-linecap:square;stroke-width:1.5;"/>
   </g>
   <g id="line2d_24">
    <path clip-path="url(#p602011515c)" d="M 69.218182 242.116364 
L 86.042302 215.102581 
L 90.630699 207.938905 
L 101.336958 191.761242 
L 110.513751 178.896948 
L 116.631613 170.960908 
L 122.749475 163.788276 
L 128.867337 157.375275 
L 134.985199 151.82446 
L 141.103061 147.008235 
L 147.220923 142.805011 
L 154.86825 138.407627 
L 162.515578 134.563616 
L 171.692371 130.731705 
L 180.869164 127.410089 
L 193.104888 123.755244 
L 208.399543 120.119615 
L 226.753129 116.602105 
L 249.695112 113.048462 
L 281.813888 109.125827 
L 323.109456 105.163078 
L 373.581818 101.267978 
L 373.581818 101.267978 
" style="fill:none;stroke:#17becf;stroke-linecap:square;stroke-width:1.5;"/>
   </g>
   <g id="line2d_25">
    <path clip-path="url(#p602011515c)" d="M 69.218182 242.116364 
L 87.571768 212.585611 
L 92.160164 205.4497 
L 102.866423 189.114063 
L 112.043216 175.904293 
L 121.220009 163.798414 
L 127.337871 156.395317 
L 133.455733 149.706504 
L 139.573595 143.747296 
L 145.691457 138.472043 
L 151.809319 133.862333 
L 154.86825 131.815458 
L 160.986112 127.971526 
L 168.63344 123.731735 
L 177.810233 119.388125 
L 188.516492 115.054461 
L 200.752216 110.870944 
L 216.046871 106.622509 
L 234.400457 102.453077 
L 258.871905 97.978326 
L 289.461215 93.455487 
L 332.286249 88.483108 
L 373.581818 84.693461 
L 373.581818 84.693461 
" style="fill:none;stroke:#1f77b4;stroke-linecap:square;stroke-width:1.5;"/>
   </g>
   <g id="line2d_26">
    <path clip-path="url(#p602011515c)" d="M 69.218182 242.116364 
L 89.101233 210.07832 
L 102.866423 188.80295 
L 115.102147 171.056022 
L 122.749475 160.669913 
L 130.396802 151.129731 
L 138.04413 142.548597 
L 144.161992 136.359181 
L 150.279854 130.803777 
L 157.927181 124.779016 
L 165.574509 119.548272 
L 173.221836 114.948633 
L 182.39863 110.138086 
L 194.634354 104.741946 
L 206.870078 100.112806 
L 222.164733 95.345712 
L 242.047784 90.270049 
L 264.989767 85.450473 
L 297.108543 80.009298 
L 339.933577 74.240046 
L 373.581818 70.715726 
L 373.581818 70.715726 
" style="fill:none;stroke:#ff7f0e;stroke-linecap:square;stroke-width:1.5;"/>
   </g>
   <g id="line2d_27">
    <path clip-path="url(#p602011515c)" d="M 69.218182 242.116364 
L 89.101233 210.002482 
L 96.748561 198.026479 
L 107.45482 181.50264 
L 118.161078 165.64875 
L 127.337871 152.77146 
L 136.514664 140.802093 
L 144.161992 131.60078 
L 151.809319 123.266999 
L 159.456647 115.79293 
L 167.103974 109.114401 
L 174.751302 103.220649 
L 183.928095 97.036941 
L 193.104888 91.510052 
L 205.340612 85.304835 
L 219.105802 79.23982 
L 234.400457 73.504068 
L 254.283508 67.300465 
L 280.284422 60.673947 
L 312.403198 53.994076 
L 355.228232 46.848312 
L 373.581818 44.443636 
L 373.581818 44.443636 
" style="fill:none;stroke:#2ca02c;stroke-linecap:square;stroke-width:1.5;"/>
   </g>
   <g id="patch_3">
    <path d="M 54 252 
L 54 34.56 
" style="fill:none;stroke:#000000;stroke-linecap:square;stroke-linejoin:miter;stroke-width:0.8;"/>
   </g>
   <g id="patch_4">
    <path d="M 388.8 252 
L 388.8 34.56 
" style="fill:none;stroke:#000000;stroke-linecap:square;stroke-linejoin:miter;stroke-width:0.8;"/>
   </g>
   <g id="patch_5">
    <path d="M 54 252 
L 388.8 252 
" style="fill:none;stroke:#000000;stroke-linecap:square;stroke-linejoin:miter;stroke-width:0.8;"/>
   </g>
   <g id="patch_6">
    <path d="M 54 34.56 
L 388.8 34.56 
" style="fill:none;stroke:#000000;stroke-linecap:square;stroke-linejoin:miter;stroke-width:0.8;"/>
   </g>
  </g>
 </g>
 <defs>
  <clipPath id="p602011515c">
   <rect height="217.44" width="334.8" x="54" y="34.56"/>
  </clipPath>
 </defs>
</svg>
