<?xml version="1.0" encoding="utf-8" standalone="no"?>
<!DOCTYPE svg PUBLIC "-//W3C//DTD SVG 1.1//EN"
  "http://www.w3.org/Graphics/SVG/1.1/DTD/svg11.dtd">
<!-- Created with matplotlib (https://matplotlib.org/) -->
<svg height="345.6pt" version="1.1" viewBox="0 0 460.8 345.6" width="460.8pt" xmlns="http://www.w3.org/2000/svg" xmlns:xlink="http://www.w3.org/1999/xlink">
 <defs>
  <style type="text/css">
*{stroke-linecap:butt;stroke-linejoin:round;}
  </style>
 </defs>
 <g id="figure_1">
  <g id="patch_1">
   <path d="M 0 345.6 
L 460.8 345.6 
L 460.8 0 
L 0 0 
z
" style="fill:#ffffff;"/>
  </g>
  <g id="axes_1">
   <g id="patch_2">
    <path d="M 57.6 307.584 
L 414.72 307.584 
L 414.72 41.472 
L 57.6 41.472 
z
" style="fill:#ffffff;"/>
   </g>
   <g id="matplotlib.axis_1">
    <g id="xtick_1">
     <g id="line2d_1">
      <defs>
       <path d="M 0 0 
L 0 3.5 
" id="m72b5edeb8b" style="stroke:#000000;stroke-width:0.8;"/>
      </defs>
      <g>
       <use style="stroke:#000000;stroke-width:0.8;" x="73.832727" xlink:href="#m72b5edeb8b" y="307.584"/>
      </g>
     </g>
     <g id="text_1">
      <!-- 0 -->
      <defs>
       <path d="M 31.78125 66.40625 
Q 24.171875 66.40625 20.328125 58.90625 
Q 16.5 51.421875 16.5 36.375 
Q 16.5 21.390625 20.328125 13.890625 
Q 24.171875 6.390625 31.78125 6.390625 
Q 39.453125 6.390625 43.28125 13.890625 
Q 47.125 21.390625 47.125 36.375 
Q 47.125 51.421875 43.28125 58.90625 
Q 39.453125 66.40625 31.78125 66.40625 
z
M 31.78125 74.21875 
Q 44.046875 74.21875 50.515625 64.515625 
Q 56.984375 54.828125 56.984375 36.375 
Q 56.984375 17.96875 50.515625 8.265625 
Q 44.046875 -1.421875 31.78125 -1.421875 
Q 19.53125 -1.421875 13.0625 8.265625 
Q 6.59375 17.96875 6.59375 36.375 
Q 6.59375 54.828125 13.0625 64.515625 
Q 19.53125 74.21875 31.78125 74.21875 
z
" id="DejaVuSans-48"/>
      </defs>
      <g transform="translate(70.651477 322.182437)scale(0.1 -0.1)">
       <use xlink:href="#DejaVuSans-48"/>
      </g>
     </g>
    </g>
    <g id="xtick_2">
     <g id="line2d_2">
      <g>
       <use style="stroke:#000000;stroke-width:0.8;" x="138.763636" xlink:href="#m72b5edeb8b" y="307.584"/>
      </g>
     </g>
     <g id="text_2">
      <!-- 2 -->
      <defs>
       <path d="M 19.1875 8.296875 
L 53.609375 8.296875 
L 53.609375 0 
L 7.328125 0 
L 7.328125 8.296875 
Q 12.9375 14.109375 22.625 23.890625 
Q 32.328125 33.6875 34.8125 36.53125 
Q 39.546875 41.84375 41.421875 45.53125 
Q 43.3125 49.21875 43.3125 52.78125 
Q 43.3125 58.59375 39.234375 62.25 
Q 35.15625 65.921875 28.609375 65.921875 
Q 23.96875 65.921875 18.8125 64.3125 
Q 13.671875 62.703125 7.8125 59.421875 
L 7.8125 69.390625 
Q 13.765625 71.78125 18.9375 73 
Q 24.125 74.21875 28.421875 74.21875 
Q 39.75 74.21875 46.484375 68.546875 
Q 53.21875 62.890625 53.21875 53.421875 
Q 53.21875 48.921875 51.53125 44.890625 
Q 49.859375 40.875 45.40625 35.40625 
Q 44.1875 33.984375 37.640625 27.21875 
Q 31.109375 20.453125 19.1875 8.296875 
z
" id="DejaVuSans-50"/>
      </defs>
      <g transform="translate(135.582386 322.182437)scale(0.1 -0.1)">
       <use xlink:href="#DejaVuSans-50"/>
      </g>
     </g>
    </g>
    <g id="xtick_3">
     <g id="line2d_3">
      <g>
       <use style="stroke:#000000;stroke-width:0.8;" x="203.694545" xlink:href="#m72b5edeb8b" y="307.584"/>
      </g>
     </g>
     <g id="text_3">
      <!-- 4 -->
      <defs>
       <path d="M 37.796875 64.3125 
L 12.890625 25.390625 
L 37.796875 25.390625 
z
M 35.203125 72.90625 
L 47.609375 72.90625 
L 47.609375 25.390625 
L 58.015625 25.390625 
L 58.015625 17.1875 
L 47.609375 17.1875 
L 47.609375 0 
L 37.796875 0 
L 37.796875 17.1875 
L 4.890625 17.1875 
L 4.890625 26.703125 
z
" id="DejaVuSans-52"/>
      </defs>
      <g transform="translate(200.513295 322.182437)scale(0.1 -0.1)">
       <use xlink:href="#DejaVuSans-52"/>
      </g>
     </g>
    </g>
    <g id="xtick_4">
     <g id="line2d_4">
      <g>
       <use style="stroke:#000000;stroke-width:0.8;" x="268.625455" xlink:href="#m72b5edeb8b" y="307.584"/>
      </g>
     </g>
     <g id="text_4">
      <!-- 6 -->
      <defs>
       <path d="M 33.015625 40.375 
Q 26.375 40.375 22.484375 35.828125 
Q 18.609375 31.296875 18.609375 23.390625 
Q 18.609375 15.53125 22.484375 10.953125 
Q 26.375 6.390625 33.015625 6.390625 
Q 39.65625 6.390625 43.53125 10.953125 
Q 47.40625 15.53125 47.40625 23.390625 
Q 47.40625 31.296875 43.53125 35.828125 
Q 39.65625 40.375 33.015625 40.375 
z
M 52.59375 71.296875 
L 52.59375 62.3125 
Q 48.875 64.0625 45.09375 64.984375 
Q 41.3125 65.921875 37.59375 65.921875 
Q 27.828125 65.921875 22.671875 59.328125 
Q 17.53125 52.734375 16.796875 39.40625 
Q 19.671875 43.65625 24.015625 45.921875 
Q 28.375 48.1875 33.59375 48.1875 
Q 44.578125 48.1875 50.953125 41.515625 
Q 57.328125 34.859375 57.328125 23.390625 
Q 57.328125 12.15625 50.6875 5.359375 
Q 44.046875 -1.421875 33.015625 -1.421875 
Q 20.359375 -1.421875 13.671875 8.265625 
Q 6.984375 17.96875 6.984375 36.375 
Q 6.984375 53.65625 15.1875 63.9375 
Q 23.390625 74.21875 37.203125 74.21875 
Q 40.921875 74.21875 44.703125 73.484375 
Q 48.484375 72.75 52.59375 71.296875 
z
" id="DejaVuSans-54"/>
      </defs>
      <g transform="translate(265.444205 322.182437)scale(0.1 -0.1)">
       <use xlink:href="#DejaVuSans-54"/>
      </g>
     </g>
    </g>
    <g id="xtick_5">
     <g id="line2d_5">
      <g>
       <use style="stroke:#000000;stroke-width:0.8;" x="333.556364" xlink:href="#m72b5edeb8b" y="307.584"/>
      </g>
     </g>
     <g id="text_5">
      <!-- 8 -->
      <defs>
       <path d="M 31.78125 34.625 
Q 24.75 34.625 20.71875 30.859375 
Q 16.703125 27.09375 16.703125 20.515625 
Q 16.703125 13.921875 20.71875 10.15625 
Q 24.75 6.390625 31.78125 6.390625 
Q 38.8125 6.390625 42.859375 10.171875 
Q 46.921875 13.96875 46.921875 20.515625 
Q 46.921875 27.09375 42.890625 30.859375 
Q 38.875 34.625 31.78125 34.625 
z
M 21.921875 38.8125 
Q 15.578125 40.375 12.03125 44.71875 
Q 8.5 49.078125 8.5 55.328125 
Q 8.5 64.0625 14.71875 69.140625 
Q 20.953125 74.21875 31.78125 74.21875 
Q 42.671875 74.21875 48.875 69.140625 
Q 55.078125 64.0625 55.078125 55.328125 
Q 55.078125 49.078125 51.53125 44.71875 
Q 48 40.375 41.703125 38.8125 
Q 48.828125 37.15625 52.796875 32.3125 
Q 56.78125 27.484375 56.78125 20.515625 
Q 56.78125 9.90625 50.3125 4.234375 
Q 43.84375 -1.421875 31.78125 -1.421875 
Q 19.734375 -1.421875 13.25 4.234375 
Q 6.78125 9.90625 6.78125 20.515625 
Q 6.78125 27.484375 10.78125 32.3125 
Q 14.796875 37.15625 21.921875 38.8125 
z
M 18.3125 54.390625 
Q 18.3125 48.734375 21.84375 45.5625 
Q 25.390625 42.390625 31.78125 42.390625 
Q 38.140625 42.390625 41.71875 45.5625 
Q 45.3125 48.734375 45.3125 54.390625 
Q 45.3125 60.0625 41.71875 63.234375 
Q 38.140625 66.40625 31.78125 66.40625 
Q 25.390625 66.40625 21.84375 63.234375 
Q 18.3125 60.0625 18.3125 54.390625 
z
" id="DejaVuSans-56"/>
      </defs>
      <g transform="translate(330.375114 322.182437)scale(0.1 -0.1)">
       <use xlink:href="#DejaVuSans-56"/>
      </g>
     </g>
    </g>
    <g id="xtick_6">
     <g id="line2d_6">
      <g>
       <use style="stroke:#000000;stroke-width:0.8;" x="398.487273" xlink:href="#m72b5edeb8b" y="307.584"/>
      </g>
     </g>
     <g id="text_6">
      <!-- 10 -->
      <defs>
       <path d="M 12.40625 8.296875 
L 28.515625 8.296875 
L 28.515625 63.921875 
L 10.984375 60.40625 
L 10.984375 69.390625 
L 28.421875 72.90625 
L 38.28125 72.90625 
L 38.28125 8.296875 
L 54.390625 8.296875 
L 54.390625 0 
L 12.40625 0 
z
" id="DejaVuSans-49"/>
      </defs>
      <g transform="translate(392.124773 322.182437)scale(0.1 -0.1)">
       <use xlink:href="#DejaVuSans-49"/>
       <use x="63.623047" xlink:href="#DejaVuSans-48"/>
      </g>
     </g>
    </g>
   </g>
   <g id="matplotlib.axis_2">
    <g id="ytick_1">
     <g id="line2d_7">
      <defs>
       <path d="M 0 0 
L -3.5 0 
" id="m7b46981e98" style="stroke:#000000;stroke-width:0.8;"/>
      </defs>
      <g>
       <use style="stroke:#000000;stroke-width:0.8;" x="57.6" xlink:href="#m7b46981e98" y="295.488"/>
      </g>
     </g>
     <g id="text_7">
      <!-- 0.0 -->
      <defs>
       <path d="M 10.6875 12.40625 
L 21 12.40625 
L 21 0 
L 10.6875 0 
z
" id="DejaVuSans-46"/>
      </defs>
      <g transform="translate(34.696875 299.287219)scale(0.1 -0.1)">
       <use xlink:href="#DejaVuSans-48"/>
       <use x="63.623047" xlink:href="#DejaVuSans-46"/>
       <use x="95.410156" xlink:href="#DejaVuSans-48"/>
      </g>
     </g>
    </g>
    <g id="ytick_2">
     <g id="line2d_8">
      <g>
       <use style="stroke:#000000;stroke-width:0.8;" x="57.6" xlink:href="#m7b46981e98" y="262.965422"/>
      </g>
     </g>
     <g id="text_8">
      <!-- 0.5 -->
      <defs>
       <path d="M 10.796875 72.90625 
L 49.515625 72.90625 
L 49.515625 64.59375 
L 19.828125 64.59375 
L 19.828125 46.734375 
Q 21.96875 47.46875 24.109375 47.828125 
Q 26.265625 48.1875 28.421875 48.1875 
Q 40.625 48.1875 47.75 41.5 
Q 54.890625 34.8125 54.890625 23.390625 
Q 54.890625 11.625 47.5625 5.09375 
Q 40.234375 -1.421875 26.90625 -1.421875 
Q 22.3125 -1.421875 17.546875 -0.640625 
Q 12.796875 0.140625 7.71875 1.703125 
L 7.71875 11.625 
Q 12.109375 9.234375 16.796875 8.0625 
Q 21.484375 6.890625 26.703125 6.890625 
Q 35.15625 6.890625 40.078125 11.328125 
Q 45.015625 15.765625 45.015625 23.390625 
Q 45.015625 31 40.078125 35.4375 
Q 35.15625 39.890625 26.703125 39.890625 
Q 22.75 39.890625 18.8125 39.015625 
Q 14.890625 38.140625 10.796875 36.28125 
z
" id="DejaVuSans-53"/>
      </defs>
      <g transform="translate(34.696875 266.764641)scale(0.1 -0.1)">
       <use xlink:href="#DejaVuSans-48"/>
       <use x="63.623047" xlink:href="#DejaVuSans-46"/>
       <use x="95.410156" xlink:href="#DejaVuSans-53"/>
      </g>
     </g>
    </g>
    <g id="ytick_3">
     <g id="line2d_9">
      <g>
       <use style="stroke:#000000;stroke-width:0.8;" x="57.6" xlink:href="#m7b46981e98" y="230.442845"/>
      </g>
     </g>
     <g id="text_9">
      <!-- 1.0 -->
      <g transform="translate(34.696875 234.242064)scale(0.1 -0.1)">
       <use xlink:href="#DejaVuSans-49"/>
       <use x="63.623047" xlink:href="#DejaVuSans-46"/>
       <use x="95.410156" xlink:href="#DejaVuSans-48"/>
      </g>
     </g>
    </g>
    <g id="ytick_4">
     <g id="line2d_10">
      <g>
       <use style="stroke:#000000;stroke-width:0.8;" x="57.6" xlink:href="#m7b46981e98" y="197.920267"/>
      </g>
     </g>
     <g id="text_10">
      <!-- 1.5 -->
      <g transform="translate(34.696875 201.719486)scale(0.1 -0.1)">
       <use xlink:href="#DejaVuSans-49"/>
       <use x="63.623047" xlink:href="#DejaVuSans-46"/>
       <use x="95.410156" xlink:href="#DejaVuSans-53"/>
      </g>
     </g>
    </g>
    <g id="ytick_5">
     <g id="line2d_11">
      <g>
       <use style="stroke:#000000;stroke-width:0.8;" x="57.6" xlink:href="#m7b46981e98" y="165.39769"/>
      </g>
     </g>
     <g id="text_11">
      <!-- 2.0 -->
      <g transform="translate(34.696875 169.196908)scale(0.1 -0.1)">
       <use xlink:href="#DejaVuSans-50"/>
       <use x="63.623047" xlink:href="#DejaVuSans-46"/>
       <use x="95.410156" xlink:href="#DejaVuSans-48"/>
      </g>
     </g>
    </g>
    <g id="ytick_6">
     <g id="line2d_12">
      <g>
       <use style="stroke:#000000;stroke-width:0.8;" x="57.6" xlink:href="#m7b46981e98" y="132.875112"/>
      </g>
     </g>
     <g id="text_12">
      <!-- 2.5 -->
      <g transform="translate(34.696875 136.674331)scale(0.1 -0.1)">
       <use xlink:href="#DejaVuSans-50"/>
       <use x="63.623047" xlink:href="#DejaVuSans-46"/>
       <use x="95.410156" xlink:href="#DejaVuSans-53"/>
      </g>
     </g>
    </g>
    <g id="ytick_7">
     <g id="line2d_13">
      <g>
       <use style="stroke:#000000;stroke-width:0.8;" x="57.6" xlink:href="#m7b46981e98" y="100.352534"/>
      </g>
     </g>
     <g id="text_13">
      <!-- 3.0 -->
      <defs>
       <path d="M 40.578125 39.3125 
Q 47.65625 37.796875 51.625 33 
Q 55.609375 28.21875 55.609375 21.1875 
Q 55.609375 10.40625 48.1875 4.484375 
Q 40.765625 -1.421875 27.09375 -1.421875 
Q 22.515625 -1.421875 17.65625 -0.515625 
Q 12.796875 0.390625 7.625 2.203125 
L 7.625 11.71875 
Q 11.71875 9.328125 16.59375 8.109375 
Q 21.484375 6.890625 26.8125 6.890625 
Q 36.078125 6.890625 40.9375 10.546875 
Q 45.796875 14.203125 45.796875 21.1875 
Q 45.796875 27.640625 41.28125 31.265625 
Q 36.765625 34.90625 28.71875 34.90625 
L 20.21875 34.90625 
L 20.21875 43.015625 
L 29.109375 43.015625 
Q 36.375 43.015625 40.234375 45.921875 
Q 44.09375 48.828125 44.09375 54.296875 
Q 44.09375 59.90625 40.109375 62.90625 
Q 36.140625 65.921875 28.71875 65.921875 
Q 24.65625 65.921875 20.015625 65.03125 
Q 15.375 64.15625 9.8125 62.3125 
L 9.8125 71.09375 
Q 15.4375 72.65625 20.34375 73.4375 
Q 25.25 74.21875 29.59375 74.21875 
Q 40.828125 74.21875 47.359375 69.109375 
Q 53.90625 64.015625 53.90625 55.328125 
Q 53.90625 49.265625 50.4375 45.09375 
Q 46.96875 40.921875 40.578125 39.3125 
z
" id="DejaVuSans-51"/>
      </defs>
      <g transform="translate(34.696875 104.151753)scale(0.1 -0.1)">
       <use xlink:href="#DejaVuSans-51"/>
       <use x="63.623047" xlink:href="#DejaVuSans-46"/>
       <use x="95.410156" xlink:href="#DejaVuSans-48"/>
      </g>
     </g>
    </g>
    <g id="ytick_8">
     <g id="line2d_14">
      <g>
       <use style="stroke:#000000;stroke-width:0.8;" x="57.6" xlink:href="#m7b46981e98" y="67.829957"/>
      </g>
     </g>
     <g id="text_14">
      <!-- 3.5 -->
      <g transform="translate(34.696875 71.629176)scale(0.1 -0.1)">
       <use xlink:href="#DejaVuSans-51"/>
       <use x="63.623047" xlink:href="#DejaVuSans-46"/>
       <use x="95.410156" xlink:href="#DejaVuSans-53"/>
      </g>
     </g>
    </g>
   </g>
   <g id="line2d_15">
    <path clip-path="url(#pd192d30eeb)" d="M 73.832727 295.488 
L 78.727017 286.741575 
L 85.252736 275.198733 
L 88.515596 270.676476 
L 90.147026 268.543253 
L 93.409886 265.518814 
L 96.672746 263.467719 
L 98.304175 262.692017 
L 101.567035 261.519991 
L 104.829895 260.71558 
L 109.724185 259.924606 
L 116.249904 259.264916 
L 122.775624 258.817436 
L 132.564203 258.343357 
L 153.772791 257.638488 
L 196.189968 256.568858 
L 295.70719 254.322957 
L 398.487273 252.05251 
L 398.487273 252.05251 
" style="fill:none;stroke:#1f77b4;stroke-linecap:square;stroke-width:1.5;"/>
   </g>
   <g id="line2d_16">
    <path clip-path="url(#pd192d30eeb)" d="M 73.832727 295.488 
L 81.989877 280.48804 
L 90.147026 265.593111 
L 98.304175 252.609347 
L 103.198465 246.033757 
L 106.461325 242.381866 
L 109.724185 239.312552 
L 111.355614 237.908933 
L 114.618474 235.58507 
L 117.881334 233.700327 
L 119.512764 232.855969 
L 124.407053 230.852207 
L 129.301343 229.305858 
L 134.195633 228.117157 
L 140.721352 226.940318 
L 148.878502 225.905713 
L 158.667081 225.057265 
L 171.71852 224.260117 
L 188.032819 223.54211 
L 212.504267 222.731383 
L 250.027154 221.706075 
L 315.284349 220.146209 
L 398.487273 218.253182 
L 398.487273 218.253182 
" style="fill:none;stroke:#ff7f0e;stroke-linecap:square;stroke-width:1.5;"/>
   </g>
   <g id="line2d_17">
    <path clip-path="url(#pd192d30eeb)" d="M 73.832727 295.488 
L 85.252736 274.267929 
L 93.409886 259.307941 
L 103.198465 242.686993 
L 109.724185 232.664867 
L 116.249904 224.002221 
L 121.144194 218.432114 
L 126.038483 213.704898 
L 130.932773 209.747089 
L 135.827063 206.448833 
L 140.721352 203.707574 
L 147.247072 200.73664 
L 155.404221 197.856876 
L 163.56137 195.632177 
L 173.34995 193.645208 
L 184.769959 191.943687 
L 199.452828 190.426575 
L 219.029986 189.058013 
L 245.132864 187.775009 
L 281.024322 186.480175 
L 333.230078 184.987805 
L 398.487273 183.357768 
L 398.487273 183.357768 
" style="fill:none;stroke:#2ca02c;stroke-linecap:square;stroke-width:1.5;"/>
   </g>
   <g id="line2d_18">
    <path clip-path="url(#pd192d30eeb)" d="M 73.832727 295.488 
L 86.884166 271.160584 
L 93.409886 259.060304 
L 104.829895 239.277282 
L 112.987044 226.405294 
L 119.512764 217.227155 
L 124.407053 211.118505 
L 129.301343 205.7795 
L 132.564203 202.642719 
L 135.827063 199.685104 
L 140.721352 195.875201 
L 145.615642 192.626581 
L 147.247072 191.592337 
L 153.772791 188.117741 
L 161.929941 184.533124 
L 170.08709 181.651446 
L 179.875669 178.927313 
L 191.295678 176.469959 
L 207.609977 174.042144 
L 225.555706 172.135707 
L 250.027154 170.293199 
L 284.287181 168.505284 
L 329.967218 166.781909 
L 398.487273 164.78452 
L 398.487273 164.78452 
" style="fill:none;stroke:#d62728;stroke-linecap:square;stroke-width:1.5;"/>
   </g>
   <g id="line2d_19">
    <path clip-path="url(#pd192d30eeb)" d="M 73.832727 295.488 
L 88.515596 268.090582 
L 95.041316 256.122935 
L 106.461325 236.349662 
L 114.618474 223.407263 
L 121.144194 214.092856 
L 126.038483 207.8222 
L 130.932773 202.293222 
L 132.564203 200.555381 
L 137.458492 195.865658 
L 143.984212 190.603155 
L 148.878502 187.205634 
L 153.772791 184.344933 
L 157.035651 182.565584 
L 163.56137 179.388351 
L 173.34995 175.631921 
L 183.138529 172.6257 
L 194.558538 169.84997 
L 210.872837 167.058456 
L 228.818566 164.814173 
L 253.290014 162.623136 
L 285.918611 160.575942 
L 331.598648 158.563375 
L 396.855843 156.43874 
L 398.487273 156.394367 
L 398.487273 156.394367 
" style="fill:none;stroke:#9467bd;stroke-linecap:square;stroke-width:1.5;"/>
   </g>
   <g id="line2d_20">
    <path clip-path="url(#pd192d30eeb)" d="M 73.832727 295.488 
L 88.515596 268.068078 
L 95.041316 256.057524 
L 106.461325 236.130017 
L 114.618474 222.958694 
L 121.144194 213.388261 
L 127.669913 204.859598 
L 134.195633 197.51113 
L 139.089922 192.69953 
L 145.615642 187.266683 
L 152.141361 182.685226 
L 158.667081 178.850106 
L 166.82423 174.792014 
L 174.98138 171.455076 
L 184.769959 168.18174 
L 197.821398 164.801844 
L 212.504267 161.999768 
L 232.081425 159.290207 
L 256.552873 156.830212 
L 289.181471 154.521924 
L 333.230078 152.332442 
L 398.487273 150.005685 
L 398.487273 150.005685 
" style="fill:none;stroke:#8c564b;stroke-linecap:square;stroke-width:1.5;"/>
   </g>
   <g id="line2d_21">
    <path clip-path="url(#pd192d30eeb)" d="M 73.832727 295.488 
L 88.515596 268.062888 
L 95.041316 256.042681 
L 106.461325 236.080186 
L 114.618474 222.856958 
L 122.775624 211.050508 
L 127.669913 204.641096 
L 134.195633 197.168357 
L 139.089922 192.328328 
L 143.984212 188.109478 
L 145.615642 186.752996 
L 152.141361 182.079491 
L 158.667081 178.166232 
L 166.82423 174.014346 
L 174.98138 170.592818 
L 186.401389 166.787205 
L 197.821398 163.743419 
L 212.504267 160.845994 
L 232.081425 158.04278 
L 256.552873 155.490903 
L 289.181471 153.097514 
L 333.230078 150.834514 
L 398.487273 148.448584 
L 398.487273 148.448584 
" style="fill:none;stroke:#e377c2;stroke-linecap:square;stroke-width:1.5;"/>
   </g>
   <g id="line2d_22">
    <path clip-path="url(#pd192d30eeb)" d="M 73.832727 295.488 
L 88.515596 268.057863 
L 95.041316 256.028405 
L 106.461325 236.032334 
L 114.618474 222.761164 
L 122.775624 210.879839 
L 129.301343 202.481317 
L 134.195633 196.836441 
L 140.721352 190.468093 
L 145.615642 186.270683 
L 152.141361 181.490643 
L 160.298511 176.646419 
L 166.82423 173.257405 
L 176.61281 169.186408 
L 186.401389 165.851614 
L 197.821398 162.710994 
L 214.135697 159.474332 
L 233.712855 156.640488 
L 256.552873 154.176964 
L 289.181471 151.696224 
L 334.861508 149.293595 
L 398.487273 146.909803 
L 398.487273 146.909803 
" style="fill:none;stroke:#7f7f7f;stroke-linecap:square;stroke-width:1.5;"/>
   </g>
   <g id="line2d_23">
    <path clip-path="url(#pd192d30eeb)" d="M 73.832727 295.488 
L 88.515596 268.039279 
L 95.041316 255.976353 
L 106.461325 235.858051 
L 116.249904 219.971223 
L 122.775624 210.254981 
L 129.301343 201.561026 
L 135.827063 193.956089 
L 142.352782 187.477927 
L 147.247072 183.164905 
L 153.772791 178.263344 
L 161.929941 173.236824 
L 168.45566 169.699568 
L 178.244239 165.409189 
L 188.032819 161.861763 
L 201.084258 158.113436 
L 215.767127 154.937766 
L 235.344285 151.800225 
L 259.815733 148.903906 
L 292.444331 146.144956 
L 336.492937 143.546461 
L 398.487273 140.966743 
L 398.487273 140.966743 
" style="fill:none;stroke:#bcbd22;stroke-linecap:square;stroke-width:1.5;"/>
   </g>
   <g id="line2d_24">
    <path clip-path="url(#pd192d30eeb)" d="M 73.832727 295.488 
L 90.147026 264.969445 
L 95.041316 255.920181 
L 108.092755 232.982174 
L 116.249904 219.557048 
L 124.407053 207.362507 
L 130.932773 198.587287 
L 137.458492 190.867617 
L 142.352782 185.75997 
L 147.247072 181.254792 
L 148.878502 179.772686 
L 155.404221 174.677841 
L 161.929941 170.384561 
L 166.82423 167.558085 
L 171.71852 164.90745 
L 179.875669 161.105737 
L 191.295678 156.779581 
L 202.715688 153.203048 
L 219.029986 149.39566 
L 238.607145 145.956313 
L 263.078593 142.73857 
L 294.075761 139.735896 
L 338.124367 136.747816 
L 398.487273 133.860197 
L 398.487273 133.860197 
" style="fill:none;stroke:#17becf;stroke-linecap:square;stroke-width:1.5;"/>
   </g>
   <g id="line2d_25">
    <path clip-path="url(#pd192d30eeb)" d="M 73.832727 295.488 
L 91.778456 261.84517 
L 96.672746 252.84631 
L 109.724185 229.662555 
L 119.512764 213.30807 
L 127.669913 200.678085 
L 135.827063 189.289132 
L 142.352782 181.122757 
L 148.878502 173.877461 
L 155.404221 167.486601 
L 161.929941 161.934272 
L 170.08709 156.017392 
L 178.244239 150.89631 
L 188.032819 145.691155 
L 199.452828 140.62492 
L 210.872837 136.301391 
L 227.187136 131.458035 
L 246.764294 126.906072 
L 272.867172 122.269807 
L 305.49577 117.845268 
L 349.544376 113.435529 
L 398.487273 109.798451 
L 398.487273 109.798451 
" style="fill:none;stroke:#1f77b4;stroke-linecap:square;stroke-width:1.5;"/>
   </g>
   <g id="line2d_26">
    <path clip-path="url(#pd192d30eeb)" d="M 73.832727 295.488 
L 93.409886 258.731459 
L 96.672746 252.724519 
L 111.355614 226.472037 
L 121.144194 209.840004 
L 130.932773 194.40402 
L 139.089922 182.633147 
L 145.615642 174.015585 
L 152.141361 166.266844 
L 158.667081 159.375283 
L 161.929941 156.254827 
L 166.82423 151.756404 
L 174.98138 145.243495 
L 184.769959 138.621595 
L 194.558538 132.883032 
L 205.978547 127.223253 
L 219.029986 121.721765 
L 235.344285 116.132415 
L 254.921444 110.726144 
L 281.024322 105.047908 
L 313.652919 99.470682 
L 357.701526 93.69343 
L 398.487273 89.663311 
L 398.487273 89.663311 
" style="fill:none;stroke:#ff7f0e;stroke-linecap:square;stroke-width:1.5;"/>
   </g>
   <g id="line2d_27">
    <path clip-path="url(#pd192d30eeb)" d="M 73.832727 295.488 
L 95.041316 255.573143 
L 101.567035 243.656279 
L 114.618474 220.164872 
L 126.038483 200.480882 
L 135.827063 184.507146 
L 145.615642 169.677312 
L 153.772791 158.304117 
L 161.929941 148.017287 
L 168.45566 140.506779 
L 176.61281 132.091922 
L 184.769959 124.743316 
L 189.664249 120.821255 
L 196.189968 115.819277 
L 205.978547 109.103588 
L 217.398556 102.388414 
L 232.081425 94.939334 
L 248.395724 87.929382 
L 269.604312 80.463594 
L 295.70719 72.969756 
L 329.967218 65.074481 
L 375.647254 56.712222 
L 398.487273 53.568 
L 398.487273 53.568 
" style="fill:none;stroke:#2ca02c;stroke-linecap:square;stroke-width:1.5;"/>
   </g>
   <g id="patch_3">
    <path d="M 57.6 307.584 
L 57.6 41.472 
" style="fill:none;stroke:#000000;stroke-linecap:square;stroke-linejoin:miter;stroke-width:0.8;"/>
   </g>
   <g id="patch_4">
    <path d="M 414.72 307.584 
L 414.72 41.472 
" style="fill:none;stroke:#000000;stroke-linecap:square;stroke-linejoin:miter;stroke-width:0.8;"/>
   </g>
   <g id="patch_5">
    <path d="M 57.6 307.584 
L 414.72 307.584 
" style="fill:none;stroke:#000000;stroke-linecap:square;stroke-linejoin:miter;stroke-width:0.8;"/>
   </g>
   <g id="patch_6">
    <path d="M 57.6 41.472 
L 414.72 41.472 
" style="fill:none;stroke:#000000;stroke-linecap:square;stroke-linejoin:miter;stroke-width:0.8;"/>
   </g>
  </g>
 </g>
 <defs>
  <clipPath id="pd192d30eeb">
   <rect height="266.112" width="357.12" x="57.6" y="41.472"/>
  </clipPath>
 </defs>
</svg>
