<?xml version="1.0" encoding="utf-8" standalone="no"?>
<!DOCTYPE svg PUBLIC "-//W3C//DTD SVG 1.1//EN"
  "http://www.w3.org/Graphics/SVG/1.1/DTD/svg11.dtd">
<!-- Created with matplotlib (https://matplotlib.org/) -->
<svg height="288pt" version="1.1" viewBox="0 0 432 288" width="432pt" xmlns="http://www.w3.org/2000/svg" xmlns:xlink="http://www.w3.org/1999/xlink">
 <metadata>
  <rdf:RDF xmlns:cc="http://creativecommons.org/ns#" xmlns:dc="http://purl.org/dc/elements/1.1/" xmlns:rdf="http://www.w3.org/1999/02/22-rdf-syntax-ns#">
   <cc:Work>
    <dc:type rdf:resource="http://purl.org/dc/dcmitype/StillImage"/>
    <dc:date>2023-03-17T13:35:41.438287</dc:date>
    <dc:format>image/svg+xml</dc:format>
    <dc:creator>
     <cc:Agent>
      <dc:title>Matplotlib v3.3.3, https://matplotlib.org/</dc:title>
     </cc:Agent>
    </dc:creator>
   </cc:Work>
  </rdf:RDF>
 </metadata>
 <defs>
  <style type="text/css">*{stroke-linecap:butt;stroke-linejoin:round;}</style>
 </defs>
 <g id="figure_1">
  <g id="patch_1">
   <path d="M 0 288 
L 432 288 
L 432 0 
L 0 0 
z
" style="fill:none;"/>
  </g>
  <g id="axes_1">
   <g id="patch_2">
    <path d="M 54 252 
L 388.8 252 
L 388.8 34.56 
L 54 34.56 
z
" style="fill:#ffffff;"/>
   </g>
   <g id="patch_3">
    <path clip-path="url(#pfc1177e2e5)" d="M 69.218182 252 
L 71.376789 252 
L 71.376789 252 
L 69.218182 252 
z
" style="fill:#1f77b4;"/>
   </g>
   <g id="patch_4">
    <path clip-path="url(#pfc1177e2e5)" d="M 71.376789 252 
L 73.535397 252 
L 73.535397 252 
L 71.376789 252 
z
" style="fill:#1f77b4;"/>
   </g>
   <g id="patch_5">
    <path clip-path="url(#pfc1177e2e5)" d="M 73.535397 252 
L 75.694004 252 
L 75.694004 252 
L 73.535397 252 
z
" style="fill:#1f77b4;"/>
   </g>
   <g id="patch_6">
    <path clip-path="url(#pfc1177e2e5)" d="M 75.694004 252 
L 77.852611 252 
L 77.852611 252 
L 75.694004 252 
z
" style="fill:#1f77b4;"/>
   </g>
   <g id="patch_7">
    <path clip-path="url(#pfc1177e2e5)" d="M 77.852611 252 
L 80.011219 252 
L 80.011219 252 
L 77.852611 252 
z
" style="fill:#1f77b4;"/>
   </g>
   <g id="patch_8">
    <path clip-path="url(#pfc1177e2e5)" d="M 80.011219 252 
L 82.169826 252 
L 82.169826 252 
L 80.011219 252 
z
" style="fill:#1f77b4;"/>
   </g>
   <g id="patch_9">
    <path clip-path="url(#pfc1177e2e5)" d="M 82.169826 252 
L 84.328433 252 
L 84.328433 251.580798 
L 82.169826 251.580798 
z
" style="fill:#1f77b4;"/>
   </g>
   <g id="patch_10">
    <path clip-path="url(#pfc1177e2e5)" d="M 84.328433 252 
L 86.487041 252 
L 86.487041 252 
L 84.328433 252 
z
" style="fill:#1f77b4;"/>
   </g>
   <g id="patch_11">
    <path clip-path="url(#pfc1177e2e5)" d="M 86.487041 252 
L 88.645648 252 
L 88.645648 252 
L 86.487041 252 
z
" style="fill:#1f77b4;"/>
   </g>
   <g id="patch_12">
    <path clip-path="url(#pfc1177e2e5)" d="M 88.645648 252 
L 90.804255 252 
L 90.804255 252 
L 88.645648 252 
z
" style="fill:#1f77b4;"/>
   </g>
   <g id="patch_13">
    <path clip-path="url(#pfc1177e2e5)" d="M 90.804255 252 
L 92.962863 252 
L 92.962863 252 
L 90.804255 252 
z
" style="fill:#1f77b4;"/>
   </g>
   <g id="patch_14">
    <path clip-path="url(#pfc1177e2e5)" d="M 92.962863 252 
L 95.12147 252 
L 95.12147 252 
L 92.962863 252 
z
" style="fill:#1f77b4;"/>
   </g>
   <g id="patch_15">
    <path clip-path="url(#pfc1177e2e5)" d="M 95.12147 252 
L 97.280077 252 
L 97.280077 251.580798 
L 95.12147 251.580798 
z
" style="fill:#1f77b4;"/>
   </g>
   <g id="patch_16">
    <path clip-path="url(#pfc1177e2e5)" d="M 97.280077 252 
L 99.438685 252 
L 99.438685 252 
L 97.280077 252 
z
" style="fill:#1f77b4;"/>
   </g>
   <g id="patch_17">
    <path clip-path="url(#pfc1177e2e5)" d="M 99.438685 252 
L 101.597292 252 
L 101.597292 252 
L 99.438685 252 
z
" style="fill:#1f77b4;"/>
   </g>
   <g id="patch_18">
    <path clip-path="url(#pfc1177e2e5)" d="M 101.597292 252 
L 103.755899 252 
L 103.755899 252 
L 101.597292 252 
z
" style="fill:#1f77b4;"/>
   </g>
   <g id="patch_19">
    <path clip-path="url(#pfc1177e2e5)" d="M 103.755899 252 
L 105.914507 252 
L 105.914507 252 
L 103.755899 252 
z
" style="fill:#1f77b4;"/>
   </g>
   <g id="patch_20">
    <path clip-path="url(#pfc1177e2e5)" d="M 105.914507 252 
L 108.073114 252 
L 108.073114 252 
L 105.914507 252 
z
" style="fill:#1f77b4;"/>
   </g>
   <g id="patch_21">
    <path clip-path="url(#pfc1177e2e5)" d="M 108.073114 252 
L 110.231721 252 
L 110.231721 252 
L 108.073114 252 
z
" style="fill:#1f77b4;"/>
   </g>
   <g id="patch_22">
    <path clip-path="url(#pfc1177e2e5)" d="M 110.231721 252 
L 112.390329 252 
L 112.390329 252 
L 110.231721 252 
z
" style="fill:#1f77b4;"/>
   </g>
   <g id="patch_23">
    <path clip-path="url(#pfc1177e2e5)" d="M 112.390329 252 
L 114.548936 252 
L 114.548936 252 
L 112.390329 252 
z
" style="fill:#1f77b4;"/>
   </g>
   <g id="patch_24">
    <path clip-path="url(#pfc1177e2e5)" d="M 114.548936 252 
L 116.707544 252 
L 116.707544 252 
L 114.548936 252 
z
" style="fill:#1f77b4;"/>
   </g>
   <g id="patch_25">
    <path clip-path="url(#pfc1177e2e5)" d="M 116.707544 252 
L 118.866151 252 
L 118.866151 252 
L 116.707544 252 
z
" style="fill:#1f77b4;"/>
   </g>
   <g id="patch_26">
    <path clip-path="url(#pfc1177e2e5)" d="M 118.866151 252 
L 121.024758 252 
L 121.024758 252 
L 118.866151 252 
z
" style="fill:#1f77b4;"/>
   </g>
   <g id="patch_27">
    <path clip-path="url(#pfc1177e2e5)" d="M 121.024758 252 
L 123.183366 252 
L 123.183366 252 
L 121.024758 252 
z
" style="fill:#1f77b4;"/>
   </g>
   <g id="patch_28">
    <path clip-path="url(#pfc1177e2e5)" d="M 123.183366 252 
L 125.341973 252 
L 125.341973 252 
L 123.183366 252 
z
" style="fill:#1f77b4;"/>
   </g>
   <g id="patch_29">
    <path clip-path="url(#pfc1177e2e5)" d="M 125.341973 252 
L 127.50058 252 
L 127.50058 252 
L 125.341973 252 
z
" style="fill:#1f77b4;"/>
   </g>
   <g id="patch_30">
    <path clip-path="url(#pfc1177e2e5)" d="M 127.50058 252 
L 129.659188 252 
L 129.659188 252 
L 127.50058 252 
z
" style="fill:#1f77b4;"/>
   </g>
   <g id="patch_31">
    <path clip-path="url(#pfc1177e2e5)" d="M 129.659188 252 
L 131.817795 252 
L 131.817795 252 
L 129.659188 252 
z
" style="fill:#1f77b4;"/>
   </g>
   <g id="patch_32">
    <path clip-path="url(#pfc1177e2e5)" d="M 131.817795 252 
L 133.976402 252 
L 133.976402 252 
L 131.817795 252 
z
" style="fill:#1f77b4;"/>
   </g>
   <g id="patch_33">
    <path clip-path="url(#pfc1177e2e5)" d="M 133.976402 252 
L 136.13501 252 
L 136.13501 252 
L 133.976402 252 
z
" style="fill:#1f77b4;"/>
   </g>
   <g id="patch_34">
    <path clip-path="url(#pfc1177e2e5)" d="M 136.13501 252 
L 138.293617 252 
L 138.293617 252 
L 136.13501 252 
z
" style="fill:#1f77b4;"/>
   </g>
   <g id="patch_35">
    <path clip-path="url(#pfc1177e2e5)" d="M 138.293617 252 
L 140.452224 252 
L 140.452224 252 
L 138.293617 252 
z
" style="fill:#1f77b4;"/>
   </g>
   <g id="patch_36">
    <path clip-path="url(#pfc1177e2e5)" d="M 140.452224 252 
L 142.610832 252 
L 142.610832 252 
L 140.452224 252 
z
" style="fill:#1f77b4;"/>
   </g>
   <g id="patch_37">
    <path clip-path="url(#pfc1177e2e5)" d="M 142.610832 252 
L 144.769439 252 
L 144.769439 252 
L 142.610832 252 
z
" style="fill:#1f77b4;"/>
   </g>
   <g id="patch_38">
    <path clip-path="url(#pfc1177e2e5)" d="M 144.769439 252 
L 146.928046 252 
L 146.928046 252 
L 144.769439 252 
z
" style="fill:#1f77b4;"/>
   </g>
   <g id="patch_39">
    <path clip-path="url(#pfc1177e2e5)" d="M 146.928046 252 
L 149.086654 252 
L 149.086654 252 
L 146.928046 252 
z
" style="fill:#1f77b4;"/>
   </g>
   <g id="patch_40">
    <path clip-path="url(#pfc1177e2e5)" d="M 149.086654 252 
L 151.245261 252 
L 151.245261 252 
L 149.086654 252 
z
" style="fill:#1f77b4;"/>
   </g>
   <g id="patch_41">
    <path clip-path="url(#pfc1177e2e5)" d="M 151.245261 252 
L 153.403868 252 
L 153.403868 252 
L 151.245261 252 
z
" style="fill:#1f77b4;"/>
   </g>
   <g id="patch_42">
    <path clip-path="url(#pfc1177e2e5)" d="M 153.403868 252 
L 155.562476 252 
L 155.562476 252 
L 153.403868 252 
z
" style="fill:#1f77b4;"/>
   </g>
   <g id="patch_43">
    <path clip-path="url(#pfc1177e2e5)" d="M 155.562476 252 
L 157.721083 252 
L 157.721083 252 
L 155.562476 252 
z
" style="fill:#1f77b4;"/>
   </g>
   <g id="patch_44">
    <path clip-path="url(#pfc1177e2e5)" d="M 157.721083 252 
L 159.879691 252 
L 159.879691 252 
L 157.721083 252 
z
" style="fill:#1f77b4;"/>
   </g>
   <g id="patch_45">
    <path clip-path="url(#pfc1177e2e5)" d="M 159.879691 252 
L 162.038298 252 
L 162.038298 252 
L 159.879691 252 
z
" style="fill:#1f77b4;"/>
   </g>
   <g id="patch_46">
    <path clip-path="url(#pfc1177e2e5)" d="M 162.038298 252 
L 164.196905 252 
L 164.196905 252 
L 162.038298 252 
z
" style="fill:#1f77b4;"/>
   </g>
   <g id="patch_47">
    <path clip-path="url(#pfc1177e2e5)" d="M 164.196905 252 
L 166.355513 252 
L 166.355513 251.580798 
L 164.196905 251.580798 
z
" style="fill:#1f77b4;"/>
   </g>
   <g id="patch_48">
    <path clip-path="url(#pfc1177e2e5)" d="M 166.355513 252 
L 168.51412 252 
L 168.51412 252 
L 166.355513 252 
z
" style="fill:#1f77b4;"/>
   </g>
   <g id="patch_49">
    <path clip-path="url(#pfc1177e2e5)" d="M 168.51412 252 
L 170.672727 252 
L 170.672727 251.580798 
L 168.51412 251.580798 
z
" style="fill:#1f77b4;"/>
   </g>
   <g id="patch_50">
    <path clip-path="url(#pfc1177e2e5)" d="M 170.672727 252 
L 172.831335 252 
L 172.831335 252 
L 170.672727 252 
z
" style="fill:#1f77b4;"/>
   </g>
   <g id="patch_51">
    <path clip-path="url(#pfc1177e2e5)" d="M 172.831335 252 
L 174.989942 252 
L 174.989942 252 
L 172.831335 252 
z
" style="fill:#1f77b4;"/>
   </g>
   <g id="patch_52">
    <path clip-path="url(#pfc1177e2e5)" d="M 174.989942 252 
L 177.148549 252 
L 177.148549 251.161596 
L 174.989942 251.161596 
z
" style="fill:#1f77b4;"/>
   </g>
   <g id="patch_53">
    <path clip-path="url(#pfc1177e2e5)" d="M 177.148549 252 
L 179.307157 252 
L 179.307157 251.580798 
L 177.148549 251.580798 
z
" style="fill:#1f77b4;"/>
   </g>
   <g id="patch_54">
    <path clip-path="url(#pfc1177e2e5)" d="M 179.307157 252 
L 181.465764 252 
L 181.465764 251.580798 
L 179.307157 251.580798 
z
" style="fill:#1f77b4;"/>
   </g>
   <g id="patch_55">
    <path clip-path="url(#pfc1177e2e5)" d="M 181.465764 252 
L 183.624371 252 
L 183.624371 251.161596 
L 181.465764 251.161596 
z
" style="fill:#1f77b4;"/>
   </g>
   <g id="patch_56">
    <path clip-path="url(#pfc1177e2e5)" d="M 183.624371 252 
L 185.782979 252 
L 185.782979 252 
L 183.624371 252 
z
" style="fill:#1f77b4;"/>
   </g>
   <g id="patch_57">
    <path clip-path="url(#pfc1177e2e5)" d="M 185.782979 252 
L 187.941586 252 
L 187.941586 251.580798 
L 185.782979 251.580798 
z
" style="fill:#1f77b4;"/>
   </g>
   <g id="patch_58">
    <path clip-path="url(#pfc1177e2e5)" d="M 187.941586 252 
L 190.100193 252 
L 190.100193 250.323193 
L 187.941586 250.323193 
z
" style="fill:#1f77b4;"/>
   </g>
   <g id="patch_59">
    <path clip-path="url(#pfc1177e2e5)" d="M 190.100193 252 
L 192.258801 252 
L 192.258801 252 
L 190.100193 252 
z
" style="fill:#1f77b4;"/>
   </g>
   <g id="patch_60">
    <path clip-path="url(#pfc1177e2e5)" d="M 192.258801 252 
L 194.417408 252 
L 194.417408 251.161596 
L 192.258801 251.161596 
z
" style="fill:#1f77b4;"/>
   </g>
   <g id="patch_61">
    <path clip-path="url(#pfc1177e2e5)" d="M 194.417408 252 
L 196.576015 252 
L 196.576015 251.580798 
L 194.417408 251.580798 
z
" style="fill:#1f77b4;"/>
   </g>
   <g id="patch_62">
    <path clip-path="url(#pfc1177e2e5)" d="M 196.576015 252 
L 198.734623 252 
L 198.734623 251.161596 
L 196.576015 251.161596 
z
" style="fill:#1f77b4;"/>
   </g>
   <g id="patch_63">
    <path clip-path="url(#pfc1177e2e5)" d="M 198.734623 252 
L 200.89323 252 
L 200.89323 250.742394 
L 198.734623 250.742394 
z
" style="fill:#1f77b4;"/>
   </g>
   <g id="patch_64">
    <path clip-path="url(#pfc1177e2e5)" d="M 200.89323 252 
L 203.051838 252 
L 203.051838 249.903991 
L 200.89323 249.903991 
z
" style="fill:#1f77b4;"/>
   </g>
   <g id="patch_65">
    <path clip-path="url(#pfc1177e2e5)" d="M 203.051838 252 
L 205.210445 252 
L 205.210445 250.742394 
L 203.051838 250.742394 
z
" style="fill:#1f77b4;"/>
   </g>
   <g id="patch_66">
    <path clip-path="url(#pfc1177e2e5)" d="M 205.210445 252 
L 207.369052 252 
L 207.369052 251.580798 
L 205.210445 251.580798 
z
" style="fill:#1f77b4;"/>
   </g>
   <g id="patch_67">
    <path clip-path="url(#pfc1177e2e5)" d="M 207.369052 252 
L 209.52766 252 
L 209.52766 250.742394 
L 207.369052 250.742394 
z
" style="fill:#1f77b4;"/>
   </g>
   <g id="patch_68">
    <path clip-path="url(#pfc1177e2e5)" d="M 209.52766 252 
L 211.686267 252 
L 211.686267 250.323193 
L 209.52766 250.323193 
z
" style="fill:#1f77b4;"/>
   </g>
   <g id="patch_69">
    <path clip-path="url(#pfc1177e2e5)" d="M 211.686267 252 
L 213.844874 252 
L 213.844874 249.484789 
L 211.686267 249.484789 
z
" style="fill:#1f77b4;"/>
   </g>
   <g id="patch_70">
    <path clip-path="url(#pfc1177e2e5)" d="M 213.844874 252 
L 216.003482 252 
L 216.003482 249.484789 
L 213.844874 249.484789 
z
" style="fill:#1f77b4;"/>
   </g>
   <g id="patch_71">
    <path clip-path="url(#pfc1177e2e5)" d="M 216.003482 252 
L 218.162089 252 
L 218.162089 247.807981 
L 216.003482 247.807981 
z
" style="fill:#1f77b4;"/>
   </g>
   <g id="patch_72">
    <path clip-path="url(#pfc1177e2e5)" d="M 218.162089 252 
L 220.320696 252 
L 220.320696 247.38878 
L 218.162089 247.38878 
z
" style="fill:#1f77b4;"/>
   </g>
   <g id="patch_73">
    <path clip-path="url(#pfc1177e2e5)" d="M 220.320696 252 
L 222.479304 252 
L 222.479304 249.065587 
L 220.320696 249.065587 
z
" style="fill:#1f77b4;"/>
   </g>
   <g id="patch_74">
    <path clip-path="url(#pfc1177e2e5)" d="M 222.479304 252 
L 224.637911 252 
L 224.637911 247.38878 
L 222.479304 247.38878 
z
" style="fill:#1f77b4;"/>
   </g>
   <g id="patch_75">
    <path clip-path="url(#pfc1177e2e5)" d="M 224.637911 252 
L 226.796518 252 
L 226.796518 246.131174 
L 224.637911 246.131174 
z
" style="fill:#1f77b4;"/>
   </g>
   <g id="patch_76">
    <path clip-path="url(#pfc1177e2e5)" d="M 226.796518 252 
L 228.955126 252 
L 228.955126 247.807981 
L 226.796518 247.807981 
z
" style="fill:#1f77b4;"/>
   </g>
   <g id="patch_77">
    <path clip-path="url(#pfc1177e2e5)" d="M 228.955126 252 
L 231.113733 252 
L 231.113733 241.100752 
L 228.955126 241.100752 
z
" style="fill:#1f77b4;"/>
   </g>
   <g id="patch_78">
    <path clip-path="url(#pfc1177e2e5)" d="M 231.113733 252 
L 233.27234 252 
L 233.27234 244.035165 
L 231.113733 244.035165 
z
" style="fill:#1f77b4;"/>
   </g>
   <g id="patch_79">
    <path clip-path="url(#pfc1177e2e5)" d="M 233.27234 252 
L 235.430948 252 
L 235.430948 246.550376 
L 233.27234 246.550376 
z
" style="fill:#1f77b4;"/>
   </g>
   <g id="patch_80">
    <path clip-path="url(#pfc1177e2e5)" d="M 235.430948 252 
L 237.589555 252 
L 237.589555 241.100752 
L 235.430948 241.100752 
z
" style="fill:#1f77b4;"/>
   </g>
   <g id="patch_81">
    <path clip-path="url(#pfc1177e2e5)" d="M 237.589555 252 
L 239.748162 252 
L 239.748162 240.262348 
L 237.589555 240.262348 
z
" style="fill:#1f77b4;"/>
   </g>
   <g id="patch_82">
    <path clip-path="url(#pfc1177e2e5)" d="M 239.748162 252 
L 241.90677 252 
L 241.90677 233.555119 
L 239.748162 233.555119 
z
" style="fill:#1f77b4;"/>
   </g>
   <g id="patch_83">
    <path clip-path="url(#pfc1177e2e5)" d="M 241.90677 252 
L 244.065377 252 
L 244.065377 239.423944 
L 241.90677 239.423944 
z
" style="fill:#1f77b4;"/>
   </g>
   <g id="patch_84">
    <path clip-path="url(#pfc1177e2e5)" d="M 244.065377 252 
L 246.223985 252 
L 246.223985 233.97432 
L 244.065377 233.97432 
z
" style="fill:#1f77b4;"/>
   </g>
   <g id="patch_85">
    <path clip-path="url(#pfc1177e2e5)" d="M 246.223985 252 
L 248.382592 252 
L 248.382592 228.524696 
L 246.223985 228.524696 
z
" style="fill:#1f77b4;"/>
   </g>
   <g id="patch_86">
    <path clip-path="url(#pfc1177e2e5)" d="M 248.382592 252 
L 250.541199 252 
L 250.541199 234.393522 
L 248.382592 234.393522 
z
" style="fill:#1f77b4;"/>
   </g>
   <g id="patch_87">
    <path clip-path="url(#pfc1177e2e5)" d="M 250.541199 252 
L 252.699807 252 
L 252.699807 230.620706 
L 250.541199 230.620706 
z
" style="fill:#1f77b4;"/>
   </g>
   <g id="patch_88">
    <path clip-path="url(#pfc1177e2e5)" d="M 252.699807 252 
L 254.858414 252 
L 254.858414 223.913476 
L 252.699807 223.913476 
z
" style="fill:#1f77b4;"/>
   </g>
   <g id="patch_89">
    <path clip-path="url(#pfc1177e2e5)" d="M 254.858414 252 
L 257.017021 252 
L 257.017021 219.302256 
L 254.858414 219.302256 
z
" style="fill:#1f77b4;"/>
   </g>
   <g id="patch_90">
    <path clip-path="url(#pfc1177e2e5)" d="M 257.017021 252 
L 259.175629 252 
L 259.175629 223.494274 
L 257.017021 223.494274 
z
" style="fill:#1f77b4;"/>
   </g>
   <g id="patch_91">
    <path clip-path="url(#pfc1177e2e5)" d="M 259.175629 252 
L 261.334236 252 
L 261.334236 220.140659 
L 259.175629 220.140659 
z
" style="fill:#1f77b4;"/>
   </g>
   <g id="patch_92">
    <path clip-path="url(#pfc1177e2e5)" d="M 261.334236 252 
L 263.492843 252 
L 263.492843 200.438172 
L 261.334236 200.438172 
z
" style="fill:#1f77b4;"/>
   </g>
   <g id="patch_93">
    <path clip-path="url(#pfc1177e2e5)" d="M 263.492843 252 
L 265.651451 252 
L 265.651451 211.756622 
L 263.492843 211.756622 
z
" style="fill:#1f77b4;"/>
   </g>
   <g id="patch_94">
    <path clip-path="url(#pfc1177e2e5)" d="M 265.651451 252 
L 267.810058 252 
L 267.810058 205.468595 
L 265.651451 205.468595 
z
" style="fill:#1f77b4;"/>
   </g>
   <g id="patch_95">
    <path clip-path="url(#pfc1177e2e5)" d="M 267.810058 252 
L 269.968665 252 
L 269.968665 196.665356 
L 267.810058 196.665356 
z
" style="fill:#1f77b4;"/>
   </g>
   <g id="patch_96">
    <path clip-path="url(#pfc1177e2e5)" d="M 269.968665 252 
L 272.127273 252 
L 272.127273 188.281319 
L 269.968665 188.281319 
z
" style="fill:#1f77b4;"/>
   </g>
   <g id="patch_97">
    <path clip-path="url(#pfc1177e2e5)" d="M 272.127273 252 
L 274.28588 252 
L 274.28588 190.79653 
L 272.127273 190.79653 
z
" style="fill:#1f77b4;"/>
   </g>
   <g id="patch_98">
    <path clip-path="url(#pfc1177e2e5)" d="M 274.28588 252 
L 276.444487 252 
L 276.444487 176.962869 
L 274.28588 176.962869 
z
" style="fill:#1f77b4;"/>
   </g>
   <g id="patch_99">
    <path clip-path="url(#pfc1177e2e5)" d="M 276.444487 252 
L 278.603095 252 
L 278.603095 180.316484 
L 276.444487 180.316484 
z
" style="fill:#1f77b4;"/>
   </g>
   <g id="patch_100">
    <path clip-path="url(#pfc1177e2e5)" d="M 278.603095 252 
L 280.761702 252 
L 280.761702 163.548409 
L 278.603095 163.548409 
z
" style="fill:#1f77b4;"/>
   </g>
   <g id="patch_101">
    <path clip-path="url(#pfc1177e2e5)" d="M 280.761702 252 
L 282.920309 252 
L 282.920309 160.194795 
L 280.761702 160.194795 
z
" style="fill:#1f77b4;"/>
   </g>
   <g id="patch_102">
    <path clip-path="url(#pfc1177e2e5)" d="M 282.920309 252 
L 285.078917 252 
L 285.078917 134.20428 
L 282.920309 134.20428 
z
" style="fill:#1f77b4;"/>
   </g>
   <g id="patch_103">
    <path clip-path="url(#pfc1177e2e5)" d="M 285.078917 252 
L 287.237524 252 
L 287.237524 135.042684 
L 285.078917 135.042684 
z
" style="fill:#1f77b4;"/>
   </g>
   <g id="patch_104">
    <path clip-path="url(#pfc1177e2e5)" d="M 287.237524 252 
L 289.396132 252 
L 289.396132 126.239445 
L 287.237524 126.239445 
z
" style="fill:#1f77b4;"/>
   </g>
   <g id="patch_105">
    <path clip-path="url(#pfc1177e2e5)" d="M 289.396132 252 
L 291.554739 252 
L 291.554739 97.314517 
L 289.396132 97.314517 
z
" style="fill:#1f77b4;"/>
   </g>
   <g id="patch_106">
    <path clip-path="url(#pfc1177e2e5)" d="M 291.554739 252 
L 293.713346 252 
L 293.713346 101.925737 
L 291.554739 101.925737 
z
" style="fill:#1f77b4;"/>
   </g>
   <g id="patch_107">
    <path clip-path="url(#pfc1177e2e5)" d="M 293.713346 252 
L 295.871954 252 
L 295.871954 94.380104 
L 293.713346 94.380104 
z
" style="fill:#1f77b4;"/>
   </g>
   <g id="patch_108">
    <path clip-path="url(#pfc1177e2e5)" d="M 295.871954 252 
L 298.030561 252 
L 298.030561 85.576865 
L 295.871954 85.576865 
z
" style="fill:#1f77b4;"/>
   </g>
   <g id="patch_109">
    <path clip-path="url(#pfc1177e2e5)" d="M 298.030561 252 
L 300.189168 252 
L 300.189168 74.677617 
L 298.030561 74.677617 
z
" style="fill:#1f77b4;"/>
   </g>
   <g id="patch_110">
    <path clip-path="url(#pfc1177e2e5)" d="M 300.189168 252 
L 302.347776 252 
L 302.347776 65.874378 
L 300.189168 65.874378 
z
" style="fill:#1f77b4;"/>
   </g>
   <g id="patch_111">
    <path clip-path="url(#pfc1177e2e5)" d="M 302.347776 252 
L 304.506383 252 
L 304.506383 57.071139 
L 302.347776 57.071139 
z
" style="fill:#1f77b4;"/>
   </g>
   <g id="patch_112">
    <path clip-path="url(#pfc1177e2e5)" d="M 304.506383 252 
L 306.66499 252 
L 306.66499 73.839213 
L 304.506383 73.839213 
z
" style="fill:#1f77b4;"/>
   </g>
   <g id="patch_113">
    <path clip-path="url(#pfc1177e2e5)" d="M 306.66499 252 
L 308.823598 252 
L 308.823598 52.040717 
L 306.66499 52.040717 
z
" style="fill:#1f77b4;"/>
   </g>
   <g id="patch_114">
    <path clip-path="url(#pfc1177e2e5)" d="M 308.823598 252 
L 310.982205 252 
L 310.982205 44.914286 
L 308.823598 44.914286 
z
" style="fill:#1f77b4;"/>
   </g>
   <g id="patch_115">
    <path clip-path="url(#pfc1177e2e5)" d="M 310.982205 252 
L 313.140812 252 
L 313.140812 62.520763 
L 310.982205 62.520763 
z
" style="fill:#1f77b4;"/>
   </g>
   <g id="patch_116">
    <path clip-path="url(#pfc1177e2e5)" d="M 313.140812 252 
L 315.29942 252 
L 315.29942 77.192828 
L 313.140812 77.192828 
z
" style="fill:#1f77b4;"/>
   </g>
   <g id="patch_117">
    <path clip-path="url(#pfc1177e2e5)" d="M 315.29942 252 
L 317.458027 252 
L 317.458027 96.476113 
L 315.29942 96.476113 
z
" style="fill:#1f77b4;"/>
   </g>
   <g id="patch_118">
    <path clip-path="url(#pfc1177e2e5)" d="M 317.458027 252 
L 319.616634 252 
L 319.616634 99.829728 
L 317.458027 99.829728 
z
" style="fill:#1f77b4;"/>
   </g>
   <g id="patch_119">
    <path clip-path="url(#pfc1177e2e5)" d="M 319.616634 252 
L 321.775242 252 
L 321.775242 133.365876 
L 319.616634 133.365876 
z
" style="fill:#1f77b4;"/>
   </g>
   <g id="patch_120">
    <path clip-path="url(#pfc1177e2e5)" d="M 321.775242 252 
L 323.933849 252 
L 323.933849 161.033198 
L 321.775242 161.033198 
z
" style="fill:#1f77b4;"/>
   </g>
   <g id="patch_121">
    <path clip-path="url(#pfc1177e2e5)" d="M 323.933849 252 
L 326.092456 252 
L 326.092456 175.705263 
L 323.933849 175.705263 
z
" style="fill:#1f77b4;"/>
   </g>
   <g id="patch_122">
    <path clip-path="url(#pfc1177e2e5)" d="M 326.092456 252 
L 328.251064 252 
L 328.251064 202.953383 
L 326.092456 202.953383 
z
" style="fill:#1f77b4;"/>
   </g>
   <g id="patch_123">
    <path clip-path="url(#pfc1177e2e5)" d="M 328.251064 252 
L 330.409671 252 
L 330.409671 216.787045 
L 328.251064 216.787045 
z
" style="fill:#1f77b4;"/>
   </g>
   <g id="patch_124">
    <path clip-path="url(#pfc1177e2e5)" d="M 330.409671 252 
L 332.568279 252 
L 332.568279 229.3631 
L 330.409671 229.3631 
z
" style="fill:#1f77b4;"/>
   </g>
   <g id="patch_125">
    <path clip-path="url(#pfc1177e2e5)" d="M 332.568279 252 
L 334.726886 252 
L 334.726886 238.585541 
L 332.568279 238.585541 
z
" style="fill:#1f77b4;"/>
   </g>
   <g id="patch_126">
    <path clip-path="url(#pfc1177e2e5)" d="M 334.726886 252 
L 336.885493 252 
L 336.885493 247.38878 
L 334.726886 247.38878 
z
" style="fill:#1f77b4;"/>
   </g>
   <g id="patch_127">
    <path clip-path="url(#pfc1177e2e5)" d="M 336.885493 252 
L 339.044101 252 
L 339.044101 249.903991 
L 336.885493 249.903991 
z
" style="fill:#1f77b4;"/>
   </g>
   <g id="patch_128">
    <path clip-path="url(#pfc1177e2e5)" d="M 339.044101 252 
L 341.202708 252 
L 341.202708 251.161596 
L 339.044101 251.161596 
z
" style="fill:#1f77b4;"/>
   </g>
   <g id="patch_129">
    <path clip-path="url(#pfc1177e2e5)" d="M 341.202708 252 
L 343.361315 252 
L 343.361315 252 
L 341.202708 252 
z
" style="fill:#1f77b4;"/>
   </g>
   <g id="patch_130">
    <path clip-path="url(#pfc1177e2e5)" d="M 343.361315 252 
L 345.519923 252 
L 345.519923 251.580798 
L 343.361315 251.580798 
z
" style="fill:#1f77b4;"/>
   </g>
   <g id="patch_131">
    <path clip-path="url(#pfc1177e2e5)" d="M 345.519923 252 
L 347.67853 252 
L 347.67853 252 
L 345.519923 252 
z
" style="fill:#1f77b4;"/>
   </g>
   <g id="patch_132">
    <path clip-path="url(#pfc1177e2e5)" d="M 347.67853 252 
L 349.837137 252 
L 349.837137 252 
L 347.67853 252 
z
" style="fill:#1f77b4;"/>
   </g>
   <g id="patch_133">
    <path clip-path="url(#pfc1177e2e5)" d="M 349.837137 252 
L 351.995745 252 
L 351.995745 252 
L 349.837137 252 
z
" style="fill:#1f77b4;"/>
   </g>
   <g id="patch_134">
    <path clip-path="url(#pfc1177e2e5)" d="M 351.995745 252 
L 354.154352 252 
L 354.154352 252 
L 351.995745 252 
z
" style="fill:#1f77b4;"/>
   </g>
   <g id="patch_135">
    <path clip-path="url(#pfc1177e2e5)" d="M 354.154352 252 
L 356.312959 252 
L 356.312959 252 
L 354.154352 252 
z
" style="fill:#1f77b4;"/>
   </g>
   <g id="patch_136">
    <path clip-path="url(#pfc1177e2e5)" d="M 356.312959 252 
L 358.471567 252 
L 358.471567 252 
L 356.312959 252 
z
" style="fill:#1f77b4;"/>
   </g>
   <g id="patch_137">
    <path clip-path="url(#pfc1177e2e5)" d="M 358.471567 252 
L 360.630174 252 
L 360.630174 252 
L 358.471567 252 
z
" style="fill:#1f77b4;"/>
   </g>
   <g id="patch_138">
    <path clip-path="url(#pfc1177e2e5)" d="M 360.630174 252 
L 362.788781 252 
L 362.788781 252 
L 360.630174 252 
z
" style="fill:#1f77b4;"/>
   </g>
   <g id="patch_139">
    <path clip-path="url(#pfc1177e2e5)" d="M 362.788781 252 
L 364.947389 252 
L 364.947389 252 
L 362.788781 252 
z
" style="fill:#1f77b4;"/>
   </g>
   <g id="patch_140">
    <path clip-path="url(#pfc1177e2e5)" d="M 364.947389 252 
L 367.105996 252 
L 367.105996 252 
L 364.947389 252 
z
" style="fill:#1f77b4;"/>
   </g>
   <g id="patch_141">
    <path clip-path="url(#pfc1177e2e5)" d="M 367.105996 252 
L 369.264603 252 
L 369.264603 252 
L 367.105996 252 
z
" style="fill:#1f77b4;"/>
   </g>
   <g id="patch_142">
    <path clip-path="url(#pfc1177e2e5)" d="M 369.264603 252 
L 371.423211 252 
L 371.423211 252 
L 369.264603 252 
z
" style="fill:#1f77b4;"/>
   </g>
   <g id="patch_143">
    <path clip-path="url(#pfc1177e2e5)" d="M 371.423211 252 
L 373.581818 252 
L 373.581818 252 
L 371.423211 252 
z
" style="fill:#1f77b4;"/>
   </g>
   <g id="matplotlib.axis_1">
    <g id="xtick_1">
     <g id="line2d_1">
      <defs>
       <path d="M 0 0 
L 0 3.5 
" id="m5c3da12dc0" style="stroke:#000000;stroke-width:0.8;"/>
      </defs>
      <g>
       <use style="stroke:#000000;stroke-width:0.8;" x="69.218182" xlink:href="#m5c3da12dc0" y="252"/>
      </g>
     </g>
     <g id="text_1">
      <!-- −2 -->
      <g transform="translate(61.847088 266.598437)scale(0.1 -0.1)">
       <defs>
        <path d="M 10.59375 35.5 
L 73.1875 35.5 
L 73.1875 27.203125 
L 10.59375 27.203125 
z
" id="DejaVuSans-8722"/>
        <path d="M 19.1875 8.296875 
L 53.609375 8.296875 
L 53.609375 0 
L 7.328125 0 
L 7.328125 8.296875 
Q 12.9375 14.109375 22.625 23.890625 
Q 32.328125 33.6875 34.8125 36.53125 
Q 39.546875 41.84375 41.421875 45.53125 
Q 43.3125 49.21875 43.3125 52.78125 
Q 43.3125 58.59375 39.234375 62.25 
Q 35.15625 65.921875 28.609375 65.921875 
Q 23.96875 65.921875 18.8125 64.3125 
Q 13.671875 62.703125 7.8125 59.421875 
L 7.8125 69.390625 
Q 13.765625 71.78125 18.9375 73 
Q 24.125 74.21875 28.421875 74.21875 
Q 39.75 74.21875 46.484375 68.546875 
Q 53.21875 62.890625 53.21875 53.421875 
Q 53.21875 48.921875 51.53125 44.890625 
Q 49.859375 40.875 45.40625 35.40625 
Q 44.1875 33.984375 37.640625 27.21875 
Q 31.109375 20.453125 19.1875 8.296875 
z
" id="DejaVuSans-50"/>
       </defs>
       <use xlink:href="#DejaVuSans-8722"/>
       <use x="83.789062" xlink:href="#DejaVuSans-50"/>
      </g>
     </g>
    </g>
    <g id="xtick_2">
     <g id="line2d_2">
      <g>
       <use style="stroke:#000000;stroke-width:0.8;" x="112.390329" xlink:href="#m5c3da12dc0" y="252"/>
      </g>
     </g>
     <g id="text_2">
      <!-- −1 -->
      <g transform="translate(105.019235 266.598437)scale(0.1 -0.1)">
       <defs>
        <path d="M 12.40625 8.296875 
L 28.515625 8.296875 
L 28.515625 63.921875 
L 10.984375 60.40625 
L 10.984375 69.390625 
L 28.421875 72.90625 
L 38.28125 72.90625 
L 38.28125 8.296875 
L 54.390625 8.296875 
L 54.390625 0 
L 12.40625 0 
z
" id="DejaVuSans-49"/>
       </defs>
       <use xlink:href="#DejaVuSans-8722"/>
       <use x="83.789062" xlink:href="#DejaVuSans-49"/>
      </g>
     </g>
    </g>
    <g id="xtick_3">
     <g id="line2d_3">
      <g>
       <use style="stroke:#000000;stroke-width:0.8;" x="155.562476" xlink:href="#m5c3da12dc0" y="252"/>
      </g>
     </g>
     <g id="text_3">
      <!-- 0 -->
      <g transform="translate(152.381226 266.598437)scale(0.1 -0.1)">
       <defs>
        <path d="M 31.78125 66.40625 
Q 24.171875 66.40625 20.328125 58.90625 
Q 16.5 51.421875 16.5 36.375 
Q 16.5 21.390625 20.328125 13.890625 
Q 24.171875 6.390625 31.78125 6.390625 
Q 39.453125 6.390625 43.28125 13.890625 
Q 47.125 21.390625 47.125 36.375 
Q 47.125 51.421875 43.28125 58.90625 
Q 39.453125 66.40625 31.78125 66.40625 
z
M 31.78125 74.21875 
Q 44.046875 74.21875 50.515625 64.515625 
Q 56.984375 54.828125 56.984375 36.375 
Q 56.984375 17.96875 50.515625 8.265625 
Q 44.046875 -1.421875 31.78125 -1.421875 
Q 19.53125 -1.421875 13.0625 8.265625 
Q 6.59375 17.96875 6.59375 36.375 
Q 6.59375 54.828125 13.0625 64.515625 
Q 19.53125 74.21875 31.78125 74.21875 
z
" id="DejaVuSans-48"/>
       </defs>
       <use xlink:href="#DejaVuSans-48"/>
      </g>
     </g>
    </g>
    <g id="xtick_4">
     <g id="line2d_4">
      <g>
       <use style="stroke:#000000;stroke-width:0.8;" x="198.734623" xlink:href="#m5c3da12dc0" y="252"/>
      </g>
     </g>
     <g id="text_4">
      <!-- 1 -->
      <g transform="translate(195.553373 266.598437)scale(0.1 -0.1)">
       <use xlink:href="#DejaVuSans-49"/>
      </g>
     </g>
    </g>
    <g id="xtick_5">
     <g id="line2d_5">
      <g>
       <use style="stroke:#000000;stroke-width:0.8;" x="241.90677" xlink:href="#m5c3da12dc0" y="252"/>
      </g>
     </g>
     <g id="text_5">
      <!-- 2 -->
      <g transform="translate(238.72552 266.598437)scale(0.1 -0.1)">
       <use xlink:href="#DejaVuSans-50"/>
      </g>
     </g>
    </g>
    <g id="xtick_6">
     <g id="line2d_6">
      <g>
       <use style="stroke:#000000;stroke-width:0.8;" x="285.078917" xlink:href="#m5c3da12dc0" y="252"/>
      </g>
     </g>
     <g id="text_6">
      <!-- 3 -->
      <g transform="translate(281.897667 266.598437)scale(0.1 -0.1)">
       <defs>
        <path d="M 40.578125 39.3125 
Q 47.65625 37.796875 51.625 33 
Q 55.609375 28.21875 55.609375 21.1875 
Q 55.609375 10.40625 48.1875 4.484375 
Q 40.765625 -1.421875 27.09375 -1.421875 
Q 22.515625 -1.421875 17.65625 -0.515625 
Q 12.796875 0.390625 7.625 2.203125 
L 7.625 11.71875 
Q 11.71875 9.328125 16.59375 8.109375 
Q 21.484375 6.890625 26.8125 6.890625 
Q 36.078125 6.890625 40.9375 10.546875 
Q 45.796875 14.203125 45.796875 21.1875 
Q 45.796875 27.640625 41.28125 31.265625 
Q 36.765625 34.90625 28.71875 34.90625 
L 20.21875 34.90625 
L 20.21875 43.015625 
L 29.109375 43.015625 
Q 36.375 43.015625 40.234375 45.921875 
Q 44.09375 48.828125 44.09375 54.296875 
Q 44.09375 59.90625 40.109375 62.90625 
Q 36.140625 65.921875 28.71875 65.921875 
Q 24.65625 65.921875 20.015625 65.03125 
Q 15.375 64.15625 9.8125 62.3125 
L 9.8125 71.09375 
Q 15.4375 72.65625 20.34375 73.4375 
Q 25.25 74.21875 29.59375 74.21875 
Q 40.828125 74.21875 47.359375 69.109375 
Q 53.90625 64.015625 53.90625 55.328125 
Q 53.90625 49.265625 50.4375 45.09375 
Q 46.96875 40.921875 40.578125 39.3125 
z
" id="DejaVuSans-51"/>
       </defs>
       <use xlink:href="#DejaVuSans-51"/>
      </g>
     </g>
    </g>
    <g id="xtick_7">
     <g id="line2d_7">
      <g>
       <use style="stroke:#000000;stroke-width:0.8;" x="328.251064" xlink:href="#m5c3da12dc0" y="252"/>
      </g>
     </g>
     <g id="text_7">
      <!-- 4 -->
      <g transform="translate(325.069814 266.598437)scale(0.1 -0.1)">
       <defs>
        <path d="M 37.796875 64.3125 
L 12.890625 25.390625 
L 37.796875 25.390625 
z
M 35.203125 72.90625 
L 47.609375 72.90625 
L 47.609375 25.390625 
L 58.015625 25.390625 
L 58.015625 17.1875 
L 47.609375 17.1875 
L 47.609375 0 
L 37.796875 0 
L 37.796875 17.1875 
L 4.890625 17.1875 
L 4.890625 26.703125 
z
" id="DejaVuSans-52"/>
       </defs>
       <use xlink:href="#DejaVuSans-52"/>
      </g>
     </g>
    </g>
    <g id="xtick_8">
     <g id="line2d_8">
      <g>
       <use style="stroke:#000000;stroke-width:0.8;" x="371.423211" xlink:href="#m5c3da12dc0" y="252"/>
      </g>
     </g>
     <g id="text_8">
      <!-- 5 -->
      <g transform="translate(368.241961 266.598437)scale(0.1 -0.1)">
       <defs>
        <path d="M 10.796875 72.90625 
L 49.515625 72.90625 
L 49.515625 64.59375 
L 19.828125 64.59375 
L 19.828125 46.734375 
Q 21.96875 47.46875 24.109375 47.828125 
Q 26.265625 48.1875 28.421875 48.1875 
Q 40.625 48.1875 47.75 41.5 
Q 54.890625 34.8125 54.890625 23.390625 
Q 54.890625 11.625 47.5625 5.09375 
Q 40.234375 -1.421875 26.90625 -1.421875 
Q 22.3125 -1.421875 17.546875 -0.640625 
Q 12.796875 0.140625 7.71875 1.703125 
L 7.71875 11.625 
Q 12.109375 9.234375 16.796875 8.0625 
Q 21.484375 6.890625 26.703125 6.890625 
Q 35.15625 6.890625 40.078125 11.328125 
Q 45.015625 15.765625 45.015625 23.390625 
Q 45.015625 31 40.078125 35.4375 
Q 35.15625 39.890625 26.703125 39.890625 
Q 22.75 39.890625 18.8125 39.015625 
Q 14.890625 38.140625 10.796875 36.28125 
z
" id="DejaVuSans-53"/>
       </defs>
       <use xlink:href="#DejaVuSans-53"/>
      </g>
     </g>
    </g>
   </g>
   <g id="matplotlib.axis_2"/>
   <g id="patch_144">
    <path d="M 54 252 
L 54 34.56 
" style="fill:none;stroke:#000000;stroke-linecap:square;stroke-linejoin:miter;stroke-width:0.8;"/>
   </g>
   <g id="patch_145">
    <path d="M 388.8 252 
L 388.8 34.56 
" style="fill:none;stroke:#000000;stroke-linecap:square;stroke-linejoin:miter;stroke-width:0.8;"/>
   </g>
   <g id="patch_146">
    <path d="M 54 252 
L 388.8 252 
" style="fill:none;stroke:#000000;stroke-linecap:square;stroke-linejoin:miter;stroke-width:0.8;"/>
   </g>
   <g id="patch_147">
    <path d="M 54 34.56 
L 388.8 34.56 
" style="fill:none;stroke:#000000;stroke-linecap:square;stroke-linejoin:miter;stroke-width:0.8;"/>
   </g>
   <g id="text_9">
    <!-- Log Wealth Distribution of Original Model with One Type -->
    <g transform="translate(53.650313 28.56)scale(0.12 -0.12)">
     <defs>
      <path d="M 9.8125 72.90625 
L 19.671875 72.90625 
L 19.671875 8.296875 
L 55.171875 8.296875 
L 55.171875 0 
L 9.8125 0 
z
" id="DejaVuSans-76"/>
      <path d="M 30.609375 48.390625 
Q 23.390625 48.390625 19.1875 42.75 
Q 14.984375 37.109375 14.984375 27.296875 
Q 14.984375 17.484375 19.15625 11.84375 
Q 23.34375 6.203125 30.609375 6.203125 
Q 37.796875 6.203125 41.984375 11.859375 
Q 46.1875 17.53125 46.1875 27.296875 
Q 46.1875 37.015625 41.984375 42.703125 
Q 37.796875 48.390625 30.609375 48.390625 
z
M 30.609375 56 
Q 42.328125 56 49.015625 48.375 
Q 55.71875 40.765625 55.71875 27.296875 
Q 55.71875 13.875 49.015625 6.21875 
Q 42.328125 -1.421875 30.609375 -1.421875 
Q 18.84375 -1.421875 12.171875 6.21875 
Q 5.515625 13.875 5.515625 27.296875 
Q 5.515625 40.765625 12.171875 48.375 
Q 18.84375 56 30.609375 56 
z
" id="DejaVuSans-111"/>
      <path d="M 45.40625 27.984375 
Q 45.40625 37.75 41.375 43.109375 
Q 37.359375 48.484375 30.078125 48.484375 
Q 22.859375 48.484375 18.828125 43.109375 
Q 14.796875 37.75 14.796875 27.984375 
Q 14.796875 18.265625 18.828125 12.890625 
Q 22.859375 7.515625 30.078125 7.515625 
Q 37.359375 7.515625 41.375 12.890625 
Q 45.40625 18.265625 45.40625 27.984375 
z
M 54.390625 6.78125 
Q 54.390625 -7.171875 48.1875 -13.984375 
Q 42 -20.796875 29.203125 -20.796875 
Q 24.46875 -20.796875 20.265625 -20.09375 
Q 16.0625 -19.390625 12.109375 -17.921875 
L 12.109375 -9.1875 
Q 16.0625 -11.328125 19.921875 -12.34375 
Q 23.78125 -13.375 27.78125 -13.375 
Q 36.625 -13.375 41.015625 -8.765625 
Q 45.40625 -4.15625 45.40625 5.171875 
L 45.40625 9.625 
Q 42.625 4.78125 38.28125 2.390625 
Q 33.9375 0 27.875 0 
Q 17.828125 0 11.671875 7.65625 
Q 5.515625 15.328125 5.515625 27.984375 
Q 5.515625 40.671875 11.671875 48.328125 
Q 17.828125 56 27.875 56 
Q 33.9375 56 38.28125 53.609375 
Q 42.625 51.21875 45.40625 46.390625 
L 45.40625 54.6875 
L 54.390625 54.6875 
z
" id="DejaVuSans-103"/>
      <path id="DejaVuSans-32"/>
      <path d="M 3.328125 72.90625 
L 13.28125 72.90625 
L 28.609375 11.28125 
L 43.890625 72.90625 
L 54.984375 72.90625 
L 70.3125 11.28125 
L 85.59375 72.90625 
L 95.609375 72.90625 
L 77.296875 0 
L 64.890625 0 
L 49.515625 63.28125 
L 33.984375 0 
L 21.578125 0 
z
" id="DejaVuSans-87"/>
      <path d="M 56.203125 29.59375 
L 56.203125 25.203125 
L 14.890625 25.203125 
Q 15.484375 15.921875 20.484375 11.0625 
Q 25.484375 6.203125 34.421875 6.203125 
Q 39.59375 6.203125 44.453125 7.46875 
Q 49.3125 8.734375 54.109375 11.28125 
L 54.109375 2.78125 
Q 49.265625 0.734375 44.1875 -0.34375 
Q 39.109375 -1.421875 33.890625 -1.421875 
Q 20.796875 -1.421875 13.15625 6.1875 
Q 5.515625 13.8125 5.515625 26.8125 
Q 5.515625 40.234375 12.765625 48.109375 
Q 20.015625 56 32.328125 56 
Q 43.359375 56 49.78125 48.890625 
Q 56.203125 41.796875 56.203125 29.59375 
z
M 47.21875 32.234375 
Q 47.125 39.59375 43.09375 43.984375 
Q 39.0625 48.390625 32.421875 48.390625 
Q 24.90625 48.390625 20.390625 44.140625 
Q 15.875 39.890625 15.1875 32.171875 
z
" id="DejaVuSans-101"/>
      <path d="M 34.28125 27.484375 
Q 23.390625 27.484375 19.1875 25 
Q 14.984375 22.515625 14.984375 16.5 
Q 14.984375 11.71875 18.140625 8.90625 
Q 21.296875 6.109375 26.703125 6.109375 
Q 34.1875 6.109375 38.703125 11.40625 
Q 43.21875 16.703125 43.21875 25.484375 
L 43.21875 27.484375 
z
M 52.203125 31.203125 
L 52.203125 0 
L 43.21875 0 
L 43.21875 8.296875 
Q 40.140625 3.328125 35.546875 0.953125 
Q 30.953125 -1.421875 24.3125 -1.421875 
Q 15.921875 -1.421875 10.953125 3.296875 
Q 6 8.015625 6 15.921875 
Q 6 25.140625 12.171875 29.828125 
Q 18.359375 34.515625 30.609375 34.515625 
L 43.21875 34.515625 
L 43.21875 35.40625 
Q 43.21875 41.609375 39.140625 45 
Q 35.0625 48.390625 27.6875 48.390625 
Q 23 48.390625 18.546875 47.265625 
Q 14.109375 46.140625 10.015625 43.890625 
L 10.015625 52.203125 
Q 14.9375 54.109375 19.578125 55.046875 
Q 24.21875 56 28.609375 56 
Q 40.484375 56 46.34375 49.84375 
Q 52.203125 43.703125 52.203125 31.203125 
z
" id="DejaVuSans-97"/>
      <path d="M 9.421875 75.984375 
L 18.40625 75.984375 
L 18.40625 0 
L 9.421875 0 
z
" id="DejaVuSans-108"/>
      <path d="M 18.3125 70.21875 
L 18.3125 54.6875 
L 36.8125 54.6875 
L 36.8125 47.703125 
L 18.3125 47.703125 
L 18.3125 18.015625 
Q 18.3125 11.328125 20.140625 9.421875 
Q 21.96875 7.515625 27.59375 7.515625 
L 36.8125 7.515625 
L 36.8125 0 
L 27.59375 0 
Q 17.1875 0 13.234375 3.875 
Q 9.28125 7.765625 9.28125 18.015625 
L 9.28125 47.703125 
L 2.6875 47.703125 
L 2.6875 54.6875 
L 9.28125 54.6875 
L 9.28125 70.21875 
z
" id="DejaVuSans-116"/>
      <path d="M 54.890625 33.015625 
L 54.890625 0 
L 45.90625 0 
L 45.90625 32.71875 
Q 45.90625 40.484375 42.875 44.328125 
Q 39.84375 48.1875 33.796875 48.1875 
Q 26.515625 48.1875 22.3125 43.546875 
Q 18.109375 38.921875 18.109375 30.90625 
L 18.109375 0 
L 9.078125 0 
L 9.078125 75.984375 
L 18.109375 75.984375 
L 18.109375 46.1875 
Q 21.34375 51.125 25.703125 53.5625 
Q 30.078125 56 35.796875 56 
Q 45.21875 56 50.046875 50.171875 
Q 54.890625 44.34375 54.890625 33.015625 
z
" id="DejaVuSans-104"/>
      <path d="M 19.671875 64.796875 
L 19.671875 8.109375 
L 31.59375 8.109375 
Q 46.6875 8.109375 53.6875 14.9375 
Q 60.6875 21.78125 60.6875 36.53125 
Q 60.6875 51.171875 53.6875 57.984375 
Q 46.6875 64.796875 31.59375 64.796875 
z
M 9.8125 72.90625 
L 30.078125 72.90625 
Q 51.265625 72.90625 61.171875 64.09375 
Q 71.09375 55.28125 71.09375 36.53125 
Q 71.09375 17.671875 61.125 8.828125 
Q 51.171875 0 30.078125 0 
L 9.8125 0 
z
" id="DejaVuSans-68"/>
      <path d="M 9.421875 54.6875 
L 18.40625 54.6875 
L 18.40625 0 
L 9.421875 0 
z
M 9.421875 75.984375 
L 18.40625 75.984375 
L 18.40625 64.59375 
L 9.421875 64.59375 
z
" id="DejaVuSans-105"/>
      <path d="M 44.28125 53.078125 
L 44.28125 44.578125 
Q 40.484375 46.53125 36.375 47.5 
Q 32.28125 48.484375 27.875 48.484375 
Q 21.1875 48.484375 17.84375 46.4375 
Q 14.5 44.390625 14.5 40.28125 
Q 14.5 37.15625 16.890625 35.375 
Q 19.28125 33.59375 26.515625 31.984375 
L 29.59375 31.296875 
Q 39.15625 29.25 43.1875 25.515625 
Q 47.21875 21.78125 47.21875 15.09375 
Q 47.21875 7.46875 41.1875 3.015625 
Q 35.15625 -1.421875 24.609375 -1.421875 
Q 20.21875 -1.421875 15.453125 -0.5625 
Q 10.6875 0.296875 5.421875 2 
L 5.421875 11.28125 
Q 10.40625 8.6875 15.234375 7.390625 
Q 20.0625 6.109375 24.8125 6.109375 
Q 31.15625 6.109375 34.5625 8.28125 
Q 37.984375 10.453125 37.984375 14.40625 
Q 37.984375 18.0625 35.515625 20.015625 
Q 33.0625 21.96875 24.703125 23.78125 
L 21.578125 24.515625 
Q 13.234375 26.265625 9.515625 29.90625 
Q 5.8125 33.546875 5.8125 39.890625 
Q 5.8125 47.609375 11.28125 51.796875 
Q 16.75 56 26.8125 56 
Q 31.78125 56 36.171875 55.265625 
Q 40.578125 54.546875 44.28125 53.078125 
z
" id="DejaVuSans-115"/>
      <path d="M 41.109375 46.296875 
Q 39.59375 47.171875 37.8125 47.578125 
Q 36.03125 48 33.890625 48 
Q 26.265625 48 22.1875 43.046875 
Q 18.109375 38.09375 18.109375 28.8125 
L 18.109375 0 
L 9.078125 0 
L 9.078125 54.6875 
L 18.109375 54.6875 
L 18.109375 46.1875 
Q 20.953125 51.171875 25.484375 53.578125 
Q 30.03125 56 36.53125 56 
Q 37.453125 56 38.578125 55.875 
Q 39.703125 55.765625 41.0625 55.515625 
z
" id="DejaVuSans-114"/>
      <path d="M 48.6875 27.296875 
Q 48.6875 37.203125 44.609375 42.84375 
Q 40.53125 48.484375 33.40625 48.484375 
Q 26.265625 48.484375 22.1875 42.84375 
Q 18.109375 37.203125 18.109375 27.296875 
Q 18.109375 17.390625 22.1875 11.75 
Q 26.265625 6.109375 33.40625 6.109375 
Q 40.53125 6.109375 44.609375 11.75 
Q 48.6875 17.390625 48.6875 27.296875 
z
M 18.109375 46.390625 
Q 20.953125 51.265625 25.265625 53.625 
Q 29.59375 56 35.59375 56 
Q 45.5625 56 51.78125 48.09375 
Q 58.015625 40.1875 58.015625 27.296875 
Q 58.015625 14.40625 51.78125 6.484375 
Q 45.5625 -1.421875 35.59375 -1.421875 
Q 29.59375 -1.421875 25.265625 0.953125 
Q 20.953125 3.328125 18.109375 8.203125 
L 18.109375 0 
L 9.078125 0 
L 9.078125 75.984375 
L 18.109375 75.984375 
z
" id="DejaVuSans-98"/>
      <path d="M 8.5 21.578125 
L 8.5 54.6875 
L 17.484375 54.6875 
L 17.484375 21.921875 
Q 17.484375 14.15625 20.5 10.265625 
Q 23.53125 6.390625 29.59375 6.390625 
Q 36.859375 6.390625 41.078125 11.03125 
Q 45.3125 15.671875 45.3125 23.6875 
L 45.3125 54.6875 
L 54.296875 54.6875 
L 54.296875 0 
L 45.3125 0 
L 45.3125 8.40625 
Q 42.046875 3.421875 37.71875 1 
Q 33.40625 -1.421875 27.6875 -1.421875 
Q 18.265625 -1.421875 13.375 4.4375 
Q 8.5 10.296875 8.5 21.578125 
z
M 31.109375 56 
z
" id="DejaVuSans-117"/>
      <path d="M 54.890625 33.015625 
L 54.890625 0 
L 45.90625 0 
L 45.90625 32.71875 
Q 45.90625 40.484375 42.875 44.328125 
Q 39.84375 48.1875 33.796875 48.1875 
Q 26.515625 48.1875 22.3125 43.546875 
Q 18.109375 38.921875 18.109375 30.90625 
L 18.109375 0 
L 9.078125 0 
L 9.078125 54.6875 
L 18.109375 54.6875 
L 18.109375 46.1875 
Q 21.34375 51.125 25.703125 53.5625 
Q 30.078125 56 35.796875 56 
Q 45.21875 56 50.046875 50.171875 
Q 54.890625 44.34375 54.890625 33.015625 
z
" id="DejaVuSans-110"/>
      <path d="M 37.109375 75.984375 
L 37.109375 68.5 
L 28.515625 68.5 
Q 23.6875 68.5 21.796875 66.546875 
Q 19.921875 64.59375 19.921875 59.515625 
L 19.921875 54.6875 
L 34.71875 54.6875 
L 34.71875 47.703125 
L 19.921875 47.703125 
L 19.921875 0 
L 10.890625 0 
L 10.890625 47.703125 
L 2.296875 47.703125 
L 2.296875 54.6875 
L 10.890625 54.6875 
L 10.890625 58.5 
Q 10.890625 67.625 15.140625 71.796875 
Q 19.390625 75.984375 28.609375 75.984375 
z
" id="DejaVuSans-102"/>
      <path d="M 39.40625 66.21875 
Q 28.65625 66.21875 22.328125 58.203125 
Q 16.015625 50.203125 16.015625 36.375 
Q 16.015625 22.609375 22.328125 14.59375 
Q 28.65625 6.59375 39.40625 6.59375 
Q 50.140625 6.59375 56.421875 14.59375 
Q 62.703125 22.609375 62.703125 36.375 
Q 62.703125 50.203125 56.421875 58.203125 
Q 50.140625 66.21875 39.40625 66.21875 
z
M 39.40625 74.21875 
Q 54.734375 74.21875 63.90625 63.9375 
Q 73.09375 53.65625 73.09375 36.375 
Q 73.09375 19.140625 63.90625 8.859375 
Q 54.734375 -1.421875 39.40625 -1.421875 
Q 24.03125 -1.421875 14.8125 8.828125 
Q 5.609375 19.09375 5.609375 36.375 
Q 5.609375 53.65625 14.8125 63.9375 
Q 24.03125 74.21875 39.40625 74.21875 
z
" id="DejaVuSans-79"/>
      <path d="M 9.8125 72.90625 
L 24.515625 72.90625 
L 43.109375 23.296875 
L 61.8125 72.90625 
L 76.515625 72.90625 
L 76.515625 0 
L 66.890625 0 
L 66.890625 64.015625 
L 48.09375 14.015625 
L 38.1875 14.015625 
L 19.390625 64.015625 
L 19.390625 0 
L 9.8125 0 
z
" id="DejaVuSans-77"/>
      <path d="M 45.40625 46.390625 
L 45.40625 75.984375 
L 54.390625 75.984375 
L 54.390625 0 
L 45.40625 0 
L 45.40625 8.203125 
Q 42.578125 3.328125 38.25 0.953125 
Q 33.9375 -1.421875 27.875 -1.421875 
Q 17.96875 -1.421875 11.734375 6.484375 
Q 5.515625 14.40625 5.515625 27.296875 
Q 5.515625 40.1875 11.734375 48.09375 
Q 17.96875 56 27.875 56 
Q 33.9375 56 38.25 53.625 
Q 42.578125 51.265625 45.40625 46.390625 
z
M 14.796875 27.296875 
Q 14.796875 17.390625 18.875 11.75 
Q 22.953125 6.109375 30.078125 6.109375 
Q 37.203125 6.109375 41.296875 11.75 
Q 45.40625 17.390625 45.40625 27.296875 
Q 45.40625 37.203125 41.296875 42.84375 
Q 37.203125 48.484375 30.078125 48.484375 
Q 22.953125 48.484375 18.875 42.84375 
Q 14.796875 37.203125 14.796875 27.296875 
z
" id="DejaVuSans-100"/>
      <path d="M 4.203125 54.6875 
L 13.1875 54.6875 
L 24.421875 12.015625 
L 35.59375 54.6875 
L 46.1875 54.6875 
L 57.421875 12.015625 
L 68.609375 54.6875 
L 77.59375 54.6875 
L 63.28125 0 
L 52.6875 0 
L 40.921875 44.828125 
L 29.109375 0 
L 18.5 0 
z
" id="DejaVuSans-119"/>
      <path d="M -0.296875 72.90625 
L 61.375 72.90625 
L 61.375 64.59375 
L 35.5 64.59375 
L 35.5 0 
L 25.59375 0 
L 25.59375 64.59375 
L -0.296875 64.59375 
z
" id="DejaVuSans-84"/>
      <path d="M 32.171875 -5.078125 
Q 28.375 -14.84375 24.75 -17.8125 
Q 21.140625 -20.796875 15.09375 -20.796875 
L 7.90625 -20.796875 
L 7.90625 -13.28125 
L 13.1875 -13.28125 
Q 16.890625 -13.28125 18.9375 -11.515625 
Q 21 -9.765625 23.484375 -3.21875 
L 25.09375 0.875 
L 2.984375 54.6875 
L 12.5 54.6875 
L 29.59375 11.921875 
L 46.6875 54.6875 
L 56.203125 54.6875 
z
" id="DejaVuSans-121"/>
      <path d="M 18.109375 8.203125 
L 18.109375 -20.796875 
L 9.078125 -20.796875 
L 9.078125 54.6875 
L 18.109375 54.6875 
L 18.109375 46.390625 
Q 20.953125 51.265625 25.265625 53.625 
Q 29.59375 56 35.59375 56 
Q 45.5625 56 51.78125 48.09375 
Q 58.015625 40.1875 58.015625 27.296875 
Q 58.015625 14.40625 51.78125 6.484375 
Q 45.5625 -1.421875 35.59375 -1.421875 
Q 29.59375 -1.421875 25.265625 0.953125 
Q 20.953125 3.328125 18.109375 8.203125 
z
M 48.6875 27.296875 
Q 48.6875 37.203125 44.609375 42.84375 
Q 40.53125 48.484375 33.40625 48.484375 
Q 26.265625 48.484375 22.1875 42.84375 
Q 18.109375 37.203125 18.109375 27.296875 
Q 18.109375 17.390625 22.1875 11.75 
Q 26.265625 6.109375 33.40625 6.109375 
Q 40.53125 6.109375 44.609375 11.75 
Q 48.6875 17.390625 48.6875 27.296875 
z
" id="DejaVuSans-112"/>
     </defs>
     <use xlink:href="#DejaVuSans-76"/>
     <use x="53.962891" xlink:href="#DejaVuSans-111"/>
     <use x="115.144531" xlink:href="#DejaVuSans-103"/>
     <use x="178.621094" xlink:href="#DejaVuSans-32"/>
     <use x="210.408203" xlink:href="#DejaVuSans-87"/>
     <use x="303.410156" xlink:href="#DejaVuSans-101"/>
     <use x="364.933594" xlink:href="#DejaVuSans-97"/>
     <use x="426.212891" xlink:href="#DejaVuSans-108"/>
     <use x="453.996094" xlink:href="#DejaVuSans-116"/>
     <use x="493.205078" xlink:href="#DejaVuSans-104"/>
     <use x="556.583984" xlink:href="#DejaVuSans-32"/>
     <use x="588.371094" xlink:href="#DejaVuSans-68"/>
     <use x="665.373047" xlink:href="#DejaVuSans-105"/>
     <use x="693.15625" xlink:href="#DejaVuSans-115"/>
     <use x="745.255859" xlink:href="#DejaVuSans-116"/>
     <use x="784.464844" xlink:href="#DejaVuSans-114"/>
     <use x="825.578125" xlink:href="#DejaVuSans-105"/>
     <use x="853.361328" xlink:href="#DejaVuSans-98"/>
     <use x="916.837891" xlink:href="#DejaVuSans-117"/>
     <use x="980.216797" xlink:href="#DejaVuSans-116"/>
     <use x="1019.425781" xlink:href="#DejaVuSans-105"/>
     <use x="1047.208984" xlink:href="#DejaVuSans-111"/>
     <use x="1108.390625" xlink:href="#DejaVuSans-110"/>
     <use x="1171.769531" xlink:href="#DejaVuSans-32"/>
     <use x="1203.556641" xlink:href="#DejaVuSans-111"/>
     <use x="1264.738281" xlink:href="#DejaVuSans-102"/>
     <use x="1299.943359" xlink:href="#DejaVuSans-32"/>
     <use x="1331.730469" xlink:href="#DejaVuSans-79"/>
     <use x="1410.441406" xlink:href="#DejaVuSans-114"/>
     <use x="1451.554688" xlink:href="#DejaVuSans-105"/>
     <use x="1479.337891" xlink:href="#DejaVuSans-103"/>
     <use x="1542.814453" xlink:href="#DejaVuSans-105"/>
     <use x="1570.597656" xlink:href="#DejaVuSans-110"/>
     <use x="1633.976562" xlink:href="#DejaVuSans-97"/>
     <use x="1695.255859" xlink:href="#DejaVuSans-108"/>
     <use x="1723.039062" xlink:href="#DejaVuSans-32"/>
     <use x="1754.826172" xlink:href="#DejaVuSans-77"/>
     <use x="1841.105469" xlink:href="#DejaVuSans-111"/>
     <use x="1902.287109" xlink:href="#DejaVuSans-100"/>
     <use x="1965.763672" xlink:href="#DejaVuSans-101"/>
     <use x="2027.287109" xlink:href="#DejaVuSans-108"/>
     <use x="2055.070312" xlink:href="#DejaVuSans-32"/>
     <use x="2086.857422" xlink:href="#DejaVuSans-119"/>
     <use x="2168.644531" xlink:href="#DejaVuSans-105"/>
     <use x="2196.427734" xlink:href="#DejaVuSans-116"/>
     <use x="2235.636719" xlink:href="#DejaVuSans-104"/>
     <use x="2299.015625" xlink:href="#DejaVuSans-32"/>
     <use x="2330.802734" xlink:href="#DejaVuSans-79"/>
     <use x="2409.513672" xlink:href="#DejaVuSans-110"/>
     <use x="2472.892578" xlink:href="#DejaVuSans-101"/>
     <use x="2534.416016" xlink:href="#DejaVuSans-32"/>
     <use x="2566.203125" xlink:href="#DejaVuSans-84"/>
     <use x="2611.662109" xlink:href="#DejaVuSans-121"/>
     <use x="2670.841797" xlink:href="#DejaVuSans-112"/>
     <use x="2734.318359" xlink:href="#DejaVuSans-101"/>
    </g>
   </g>
  </g>
 </g>
 <defs>
  <clipPath id="pfc1177e2e5">
   <rect height="217.44" width="334.8" x="54" y="34.56"/>
  </clipPath>
 </defs>
</svg>
