<?xml version="1.0" encoding="utf-8" standalone="no"?>
<!DOCTYPE svg PUBLIC "-//W3C//DTD SVG 1.1//EN"
  "http://www.w3.org/Graphics/SVG/1.1/DTD/svg11.dtd">
<!-- Created with matplotlib (https://matplotlib.org/) -->
<svg height="288pt" version="1.1" viewBox="0 0 432 288" width="432pt" xmlns="http://www.w3.org/2000/svg" xmlns:xlink="http://www.w3.org/1999/xlink">
 <defs>
  <style type="text/css">
*{stroke-linecap:butt;stroke-linejoin:round;}
  </style>
 </defs>
 <g id="figure_1">
  <g id="patch_1">
   <path d="M 0 288 
L 432 288 
L 432 0 
L 0 0 
z
" style="fill:#ffffff;"/>
  </g>
  <g id="axes_1">
   <g id="patch_2">
    <path d="M 54 252 
L 388.8 252 
L 388.8 34.56 
L 54 34.56 
z
" style="fill:#ffffff;"/>
   </g>
   <g id="matplotlib.axis_1">
    <g id="xtick_1">
     <g id="line2d_1">
      <defs>
       <path d="M 0 0 
L 0 3.5 
" id="m4ea3a660a6" style="stroke:#000000;stroke-width:0.8;"/>
      </defs>
      <g>
       <use style="stroke:#000000;stroke-width:0.8;" x="69.218182" xlink:href="#m4ea3a660a6" y="252"/>
      </g>
     </g>
     <g id="text_1">
      <!-- 0 -->
      <defs>
       <path d="M 31.78125 66.40625 
Q 24.171875 66.40625 20.328125 58.90625 
Q 16.5 51.421875 16.5 36.375 
Q 16.5 21.390625 20.328125 13.890625 
Q 24.171875 6.390625 31.78125 6.390625 
Q 39.453125 6.390625 43.28125 13.890625 
Q 47.125 21.390625 47.125 36.375 
Q 47.125 51.421875 43.28125 58.90625 
Q 39.453125 66.40625 31.78125 66.40625 
z
M 31.78125 74.21875 
Q 44.046875 74.21875 50.515625 64.515625 
Q 56.984375 54.828125 56.984375 36.375 
Q 56.984375 17.96875 50.515625 8.265625 
Q 44.046875 -1.421875 31.78125 -1.421875 
Q 19.53125 -1.421875 13.0625 8.265625 
Q 6.59375 17.96875 6.59375 36.375 
Q 6.59375 54.828125 13.0625 64.515625 
Q 19.53125 74.21875 31.78125 74.21875 
z
" id="DejaVuSans-48"/>
      </defs>
      <g transform="translate(66.036932 266.598437)scale(0.1 -0.1)">
       <use xlink:href="#DejaVuSans-48"/>
      </g>
     </g>
    </g>
    <g id="xtick_2">
     <g id="line2d_2">
      <g>
       <use style="stroke:#000000;stroke-width:0.8;" x="130.090909" xlink:href="#m4ea3a660a6" y="252"/>
      </g>
     </g>
     <g id="text_2">
      <!-- 2 -->
      <defs>
       <path d="M 19.1875 8.296875 
L 53.609375 8.296875 
L 53.609375 0 
L 7.328125 0 
L 7.328125 8.296875 
Q 12.9375 14.109375 22.625 23.890625 
Q 32.328125 33.6875 34.8125 36.53125 
Q 39.546875 41.84375 41.421875 45.53125 
Q 43.3125 49.21875 43.3125 52.78125 
Q 43.3125 58.59375 39.234375 62.25 
Q 35.15625 65.921875 28.609375 65.921875 
Q 23.96875 65.921875 18.8125 64.3125 
Q 13.671875 62.703125 7.8125 59.421875 
L 7.8125 69.390625 
Q 13.765625 71.78125 18.9375 73 
Q 24.125 74.21875 28.421875 74.21875 
Q 39.75 74.21875 46.484375 68.546875 
Q 53.21875 62.890625 53.21875 53.421875 
Q 53.21875 48.921875 51.53125 44.890625 
Q 49.859375 40.875 45.40625 35.40625 
Q 44.1875 33.984375 37.640625 27.21875 
Q 31.109375 20.453125 19.1875 8.296875 
z
" id="DejaVuSans-50"/>
      </defs>
      <g transform="translate(126.909659 266.598437)scale(0.1 -0.1)">
       <use xlink:href="#DejaVuSans-50"/>
      </g>
     </g>
    </g>
    <g id="xtick_3">
     <g id="line2d_3">
      <g>
       <use style="stroke:#000000;stroke-width:0.8;" x="190.963636" xlink:href="#m4ea3a660a6" y="252"/>
      </g>
     </g>
     <g id="text_3">
      <!-- 4 -->
      <defs>
       <path d="M 37.796875 64.3125 
L 12.890625 25.390625 
L 37.796875 25.390625 
z
M 35.203125 72.90625 
L 47.609375 72.90625 
L 47.609375 25.390625 
L 58.015625 25.390625 
L 58.015625 17.1875 
L 47.609375 17.1875 
L 47.609375 0 
L 37.796875 0 
L 37.796875 17.1875 
L 4.890625 17.1875 
L 4.890625 26.703125 
z
" id="DejaVuSans-52"/>
      </defs>
      <g transform="translate(187.782386 266.598437)scale(0.1 -0.1)">
       <use xlink:href="#DejaVuSans-52"/>
      </g>
     </g>
    </g>
    <g id="xtick_4">
     <g id="line2d_4">
      <g>
       <use style="stroke:#000000;stroke-width:0.8;" x="251.836364" xlink:href="#m4ea3a660a6" y="252"/>
      </g>
     </g>
     <g id="text_4">
      <!-- 6 -->
      <defs>
       <path d="M 33.015625 40.375 
Q 26.375 40.375 22.484375 35.828125 
Q 18.609375 31.296875 18.609375 23.390625 
Q 18.609375 15.53125 22.484375 10.953125 
Q 26.375 6.390625 33.015625 6.390625 
Q 39.65625 6.390625 43.53125 10.953125 
Q 47.40625 15.53125 47.40625 23.390625 
Q 47.40625 31.296875 43.53125 35.828125 
Q 39.65625 40.375 33.015625 40.375 
z
M 52.59375 71.296875 
L 52.59375 62.3125 
Q 48.875 64.0625 45.09375 64.984375 
Q 41.3125 65.921875 37.59375 65.921875 
Q 27.828125 65.921875 22.671875 59.328125 
Q 17.53125 52.734375 16.796875 39.40625 
Q 19.671875 43.65625 24.015625 45.921875 
Q 28.375 48.1875 33.59375 48.1875 
Q 44.578125 48.1875 50.953125 41.515625 
Q 57.328125 34.859375 57.328125 23.390625 
Q 57.328125 12.15625 50.6875 5.359375 
Q 44.046875 -1.421875 33.015625 -1.421875 
Q 20.359375 -1.421875 13.671875 8.265625 
Q 6.984375 17.96875 6.984375 36.375 
Q 6.984375 53.65625 15.1875 63.9375 
Q 23.390625 74.21875 37.203125 74.21875 
Q 40.921875 74.21875 44.703125 73.484375 
Q 48.484375 72.75 52.59375 71.296875 
z
" id="DejaVuSans-54"/>
      </defs>
      <g transform="translate(248.655114 266.598437)scale(0.1 -0.1)">
       <use xlink:href="#DejaVuSans-54"/>
      </g>
     </g>
    </g>
    <g id="xtick_5">
     <g id="line2d_5">
      <g>
       <use style="stroke:#000000;stroke-width:0.8;" x="312.709091" xlink:href="#m4ea3a660a6" y="252"/>
      </g>
     </g>
     <g id="text_5">
      <!-- 8 -->
      <defs>
       <path d="M 31.78125 34.625 
Q 24.75 34.625 20.71875 30.859375 
Q 16.703125 27.09375 16.703125 20.515625 
Q 16.703125 13.921875 20.71875 10.15625 
Q 24.75 6.390625 31.78125 6.390625 
Q 38.8125 6.390625 42.859375 10.171875 
Q 46.921875 13.96875 46.921875 20.515625 
Q 46.921875 27.09375 42.890625 30.859375 
Q 38.875 34.625 31.78125 34.625 
z
M 21.921875 38.8125 
Q 15.578125 40.375 12.03125 44.71875 
Q 8.5 49.078125 8.5 55.328125 
Q 8.5 64.0625 14.71875 69.140625 
Q 20.953125 74.21875 31.78125 74.21875 
Q 42.671875 74.21875 48.875 69.140625 
Q 55.078125 64.0625 55.078125 55.328125 
Q 55.078125 49.078125 51.53125 44.71875 
Q 48 40.375 41.703125 38.8125 
Q 48.828125 37.15625 52.796875 32.3125 
Q 56.78125 27.484375 56.78125 20.515625 
Q 56.78125 9.90625 50.3125 4.234375 
Q 43.84375 -1.421875 31.78125 -1.421875 
Q 19.734375 -1.421875 13.25 4.234375 
Q 6.78125 9.90625 6.78125 20.515625 
Q 6.78125 27.484375 10.78125 32.3125 
Q 14.796875 37.15625 21.921875 38.8125 
z
M 18.3125 54.390625 
Q 18.3125 48.734375 21.84375 45.5625 
Q 25.390625 42.390625 31.78125 42.390625 
Q 38.140625 42.390625 41.71875 45.5625 
Q 45.3125 48.734375 45.3125 54.390625 
Q 45.3125 60.0625 41.71875 63.234375 
Q 38.140625 66.40625 31.78125 66.40625 
Q 25.390625 66.40625 21.84375 63.234375 
Q 18.3125 60.0625 18.3125 54.390625 
z
" id="DejaVuSans-56"/>
      </defs>
      <g transform="translate(309.527841 266.598437)scale(0.1 -0.1)">
       <use xlink:href="#DejaVuSans-56"/>
      </g>
     </g>
    </g>
    <g id="xtick_6">
     <g id="line2d_6">
      <g>
       <use style="stroke:#000000;stroke-width:0.8;" x="373.581818" xlink:href="#m4ea3a660a6" y="252"/>
      </g>
     </g>
     <g id="text_6">
      <!-- 10 -->
      <defs>
       <path d="M 12.40625 8.296875 
L 28.515625 8.296875 
L 28.515625 63.921875 
L 10.984375 60.40625 
L 10.984375 69.390625 
L 28.421875 72.90625 
L 38.28125 72.90625 
L 38.28125 8.296875 
L 54.390625 8.296875 
L 54.390625 0 
L 12.40625 0 
z
" id="DejaVuSans-49"/>
      </defs>
      <g transform="translate(367.219318 266.598437)scale(0.1 -0.1)">
       <use xlink:href="#DejaVuSans-49"/>
       <use x="63.623047" xlink:href="#DejaVuSans-48"/>
      </g>
     </g>
    </g>
   </g>
   <g id="matplotlib.axis_2">
    <g id="ytick_1">
     <g id="line2d_7">
      <defs>
       <path d="M 0 0 
L -3.5 0 
" id="m0da3b691d2" style="stroke:#000000;stroke-width:0.8;"/>
      </defs>
      <g>
       <use style="stroke:#000000;stroke-width:0.8;" x="54" xlink:href="#m0da3b691d2" y="242.116364"/>
      </g>
     </g>
     <g id="text_7">
      <!-- 0 -->
      <g transform="translate(40.6375 245.915582)scale(0.1 -0.1)">
       <use xlink:href="#DejaVuSans-48"/>
      </g>
     </g>
    </g>
    <g id="ytick_2">
     <g id="line2d_8">
      <g>
       <use style="stroke:#000000;stroke-width:0.8;" x="54" xlink:href="#m0da3b691d2" y="199.083258"/>
      </g>
     </g>
     <g id="text_8">
      <!-- 2 -->
      <g transform="translate(40.6375 202.882477)scale(0.1 -0.1)">
       <use xlink:href="#DejaVuSans-50"/>
      </g>
     </g>
    </g>
    <g id="ytick_3">
     <g id="line2d_9">
      <g>
       <use style="stroke:#000000;stroke-width:0.8;" x="54" xlink:href="#m0da3b691d2" y="156.050153"/>
      </g>
     </g>
     <g id="text_9">
      <!-- 4 -->
      <g transform="translate(40.6375 159.849372)scale(0.1 -0.1)">
       <use xlink:href="#DejaVuSans-52"/>
      </g>
     </g>
    </g>
    <g id="ytick_4">
     <g id="line2d_10">
      <g>
       <use style="stroke:#000000;stroke-width:0.8;" x="54" xlink:href="#m0da3b691d2" y="113.017048"/>
      </g>
     </g>
     <g id="text_10">
      <!-- 6 -->
      <g transform="translate(40.6375 116.816267)scale(0.1 -0.1)">
       <use xlink:href="#DejaVuSans-54"/>
      </g>
     </g>
    </g>
    <g id="ytick_5">
     <g id="line2d_11">
      <g>
       <use style="stroke:#000000;stroke-width:0.8;" x="54" xlink:href="#m0da3b691d2" y="69.983943"/>
      </g>
     </g>
     <g id="text_11">
      <!-- 8 -->
      <g transform="translate(40.6375 73.783162)scale(0.1 -0.1)">
       <use xlink:href="#DejaVuSans-56"/>
      </g>
     </g>
    </g>
   </g>
   <g id="line2d_12">
    <path clip-path="url(#p8129e056f9)" d="M 69.218182 242.116364 
L 76.865509 241.325827 
L 79.92444 240.805299 
L 82.983371 240.170467 
L 87.571768 238.736316 
L 90.630699 237.528953 
L 93.68963 236.121325 
L 98.278026 233.692238 
L 102.866423 231.039423 
L 108.984285 227.25361 
L 119.690544 220.266321 
L 136.514664 208.908874 
L 167.103974 187.885717 
L 219.105802 151.855005 
L 324.638922 78.497024 
L 373.581818 44.443636 
L 373.581818 44.443636 
" style="fill:none;stroke:#1f77b4;stroke-linecap:square;stroke-width:1.5;"/>
   </g>
   <g id="line2d_13">
    <path clip-path="url(#p8129e056f9)" d="M 69.218182 242.116364 
L 79.92444 241.163925 
L 87.571768 240.04769 
L 93.68963 238.768495 
L 98.278026 237.537679 
L 102.866423 236.03864 
L 107.45482 234.275081 
L 113.572682 231.551386 
L 118.161078 229.291646 
L 122.749475 226.871249 
L 130.396802 222.560721 
L 136.514664 218.919827 
L 145.691457 213.219998 
L 156.397716 206.328343 
L 168.63344 198.252719 
L 183.928095 187.971873 
L 208.399543 171.311519 
L 238.988853 150.302819 
L 280.284422 121.790984 
L 373.581818 57.102151 
L 373.581818 57.102151 
" style="fill:none;stroke:#ff7f0e;stroke-linecap:square;stroke-width:1.5;"/>
   </g>
   <g id="line2d_14">
    <path clip-path="url(#p8129e056f9)" d="M 69.218182 242.116364 
L 81.453906 241.083211 
L 90.630699 239.922988 
L 96.748561 238.901423 
L 102.866423 237.605341 
L 108.984285 236.002176 
L 115.102147 234.066444 
L 121.220009 231.804161 
L 125.808406 229.931819 
L 131.926268 227.196535 
L 139.573595 223.463006 
L 147.220923 219.454837 
L 156.397716 214.346325 
L 167.103974 208.053612 
L 177.810233 201.507354 
L 193.104888 191.811907 
L 212.98794 178.833641 
L 238.988853 161.495459 
L 272.637095 138.711519 
L 321.579991 105.220646 
L 373.581818 69.412742 
L 373.581818 69.412742 
" style="fill:none;stroke:#2ca02c;stroke-linecap:square;stroke-width:1.5;"/>
   </g>
   <g id="line2d_15">
    <path clip-path="url(#p8129e056f9)" d="M 69.218182 242.116364 
L 81.453906 241.119126 
L 92.160164 239.828088 
L 98.278026 238.870178 
L 105.925354 237.335176 
L 112.043216 235.822793 
L 118.161078 234.023956 
L 124.27894 231.932066 
L 130.396802 229.578706 
L 136.514664 226.989414 
L 144.161992 223.44816 
L 151.809319 219.641664 
L 160.986112 214.781895 
L 171.692371 208.759145 
L 183.928095 201.547346 
L 199.22275 192.136199 
L 219.105802 179.46663 
L 243.57725 163.468532 
L 277.225491 141.017691 
L 321.579991 110.983223 
L 373.581818 75.440189 
L 373.581818 75.440189 
" style="fill:none;stroke:#d62728;stroke-linecap:square;stroke-width:1.5;"/>
   </g>
   <g id="line2d_16">
    <path clip-path="url(#p8129e056f9)" d="M 69.218182 242.116364 
L 82.983371 240.965659 
L 92.160164 239.880378 
L 99.807492 238.691753 
L 105.925354 237.512116 
L 112.043216 236.088757 
L 118.161078 234.401968 
L 124.27894 232.431342 
L 131.926268 229.589264 
L 138.04413 227.071587 
L 145.691457 223.62014 
L 154.86825 219.131051 
L 162.515578 215.160881 
L 174.751302 208.381755 
L 186.987026 201.261458 
L 202.281681 191.958268 
L 222.164733 179.410999 
L 246.636181 163.544125 
L 278.754957 142.264051 
L 323.109456 112.383327 
L 373.581818 78.019362 
L 373.581818 78.019362 
" style="fill:none;stroke:#9467bd;stroke-linecap:square;stroke-width:1.5;"/>
   </g>
   <g id="line2d_17">
    <path clip-path="url(#p8129e056f9)" d="M 69.218182 242.116364 
L 82.983371 240.976732 
L 92.160164 239.915897 
L 99.807492 238.765018 
L 107.45482 237.298826 
L 113.572682 235.873074 
L 119.690544 234.193763 
L 125.808406 232.241226 
L 133.455733 229.435193 
L 139.573595 226.950854 
L 147.220923 223.548808 
L 154.86825 219.890894 
L 164.045043 215.209746 
L 176.280767 208.518351 
L 188.516492 201.483963 
L 203.811147 192.278733 
L 223.694198 179.838766 
L 248.165646 164.081689 
L 280.284422 142.917546 
L 324.638922 113.154078 
L 373.581818 79.93655 
L 373.581818 79.93655 
" style="fill:none;stroke:#8c564b;stroke-linecap:square;stroke-width:1.5;"/>
   </g>
   <g id="line2d_18">
    <path clip-path="url(#p8129e056f9)" d="M 69.218182 242.116364 
L 82.983371 240.979262 
L 92.160164 239.923939 
L 99.807492 238.781555 
L 107.45482 237.328054 
L 113.572682 235.916853 
L 119.690544 234.255397 
L 125.808406 232.32269 
L 133.455733 229.53979 
L 139.573595 227.078163 
L 147.220923 223.700593 
L 156.397716 219.303982 
L 164.045043 215.413605 
L 176.280767 208.752854 
L 188.516492 201.748317 
L 203.811147 192.575866 
L 223.694198 180.168416 
L 248.165646 164.443978 
L 280.284422 143.311715 
L 324.638922 113.579687 
L 373.581818 80.389441 
L 373.581818 80.389441 
" style="fill:none;stroke:#e377c2;stroke-linecap:square;stroke-width:1.5;"/>
   </g>
   <g id="line2d_19">
    <path clip-path="url(#p8129e056f9)" d="M 69.218182 242.116364 
L 82.983371 240.981709 
L 92.160164 239.931697 
L 99.807492 238.79748 
L 107.45482 237.3563 
L 113.572682 235.959193 
L 119.690544 234.315017 
L 125.808406 232.401284 
L 133.455733 229.641326 
L 139.573595 227.202011 
L 147.220923 223.848171 
L 156.397716 219.477689 
L 165.574509 214.795324 
L 176.280767 208.98161 
L 188.516492 202.006167 
L 203.811147 192.865972 
L 223.694198 180.490424 
L 249.695112 163.798856 
L 281.813888 142.677605 
L 326.168387 112.961312 
L 373.581818 80.834428 
L 373.581818 80.834428 
" style="fill:none;stroke:#7f7f7f;stroke-linecap:square;stroke-width:1.5;"/>
   </g>
   <g id="line2d_20">
    <path clip-path="url(#p8129e056f9)" d="M 69.218182 242.116364 
L 82.983371 240.990868 
L 92.160164 239.960732 
L 99.807492 238.857087 
L 107.45482 237.462074 
L 113.572682 236.118096 
L 121.220009 234.085226 
L 127.337871 232.176079 
L 134.985199 229.446166 
L 141.103061 227.028343 
L 148.750388 223.710548 
L 157.927181 219.391897 
L 167.103974 214.759761 
L 177.810233 209.010316 
L 190.045957 202.103529 
L 205.340612 193.049907 
L 226.753129 179.800654 
L 251.224577 164.184098 
L 283.343353 143.169297 
L 327.697853 113.562145 
L 373.581818 82.578644 
L 373.581818 82.578644 
" style="fill:none;stroke:#bcbd22;stroke-linecap:square;stroke-width:1.5;"/>
   </g>
   <g id="line2d_21">
    <path clip-path="url(#p8129e056f9)" d="M 69.218182 242.116364 
L 82.983371 241.00081 
L 93.68963 239.787024 
L 101.336958 238.664399 
L 107.45482 237.577856 
L 115.102147 235.916548 
L 121.220009 234.343797 
L 128.867337 232.005648 
L 134.985199 229.886978 
L 142.632526 226.934052 
L 150.279854 223.665919 
L 159.456647 219.41261 
L 168.63344 214.845077 
L 179.339698 209.178106 
L 193.104888 201.468267 
L 208.399543 192.476868 
L 228.282595 180.274362 
L 252.754043 164.774303 
L 284.872819 143.887431 
L 329.227318 114.419284 
L 373.581818 84.583162 
L 373.581818 84.583162 
" style="fill:none;stroke:#17becf;stroke-linecap:square;stroke-width:1.5;"/>
   </g>
   <g id="line2d_22">
    <path clip-path="url(#p8129e056f9)" d="M 69.218182 242.116364 
L 82.983371 241.029984 
L 93.68963 239.891168 
L 102.866423 238.633336 
L 110.513751 237.334951 
L 118.161078 235.761508 
L 124.27894 234.287733 
L 131.926268 232.129366 
L 139.573595 229.646095 
L 145.691457 227.451626 
L 154.86825 223.771246 
L 164.045043 219.748527 
L 174.751302 214.64821 
L 185.457561 209.219133 
L 199.22275 201.795572 
L 214.517405 193.123556 
L 234.400457 181.273932 
L 260.40137 165.178182 
L 292.520146 144.685263 
L 336.874646 115.659981 
L 373.581818 91.247648 
L 373.581818 91.247648 
" style="fill:none;stroke:#1f77b4;stroke-linecap:square;stroke-width:1.5;"/>
   </g>
   <g id="line2d_23">
    <path clip-path="url(#p8129e056f9)" d="M 69.218182 242.116364 
L 84.512837 240.902866 
L 95.219095 239.777298 
L 104.395889 238.558613 
L 112.043216 237.320695 
L 119.690544 235.843377 
L 127.337871 234.094278 
L 134.985199 232.04393 
L 142.632526 229.688192 
L 150.279854 227.045149 
L 157.927181 224.137609 
L 167.103974 220.320643 
L 179.339698 214.725406 
L 190.045957 209.497006 
L 203.811147 202.312562 
L 220.635267 193.033097 
L 240.518319 181.475623 
L 266.519233 165.708975 
L 298.638008 145.576564 
L 342.992508 116.959517 
L 373.581818 96.825006 
L 373.581818 96.825006 
" style="fill:none;stroke:#ff7f0e;stroke-linecap:square;stroke-width:1.5;"/>
   </g>
   <g id="line2d_24">
    <path clip-path="url(#p8129e056f9)" d="M 69.218182 242.116364 
L 84.512837 240.940431 
L 96.748561 239.724665 
L 105.925354 238.599253 
L 115.102147 237.243139 
L 122.749475 235.910211 
L 130.396802 234.364012 
L 139.573595 232.171723 
L 147.220923 230.075487 
L 156.397716 227.228507 
L 165.574509 224.029319 
L 176.280767 219.866233 
L 186.987026 215.336537 
L 199.22275 209.737355 
L 214.517405 202.206581 
L 231.341526 193.396023 
L 252.754043 181.513085 
L 278.754957 166.333634 
L 312.403198 145.883264 
L 356.757698 117.997444 
L 373.581818 107.145494 
L 373.581818 107.145494 
" style="fill:none;stroke:#2ca02c;stroke-linecap:square;stroke-width:1.5;"/>
   </g>
   <g id="patch_3">
    <path d="M 54 252 
L 54 34.56 
" style="fill:none;stroke:#000000;stroke-linecap:square;stroke-linejoin:miter;stroke-width:0.8;"/>
   </g>
   <g id="patch_4">
    <path d="M 388.8 252 
L 388.8 34.56 
" style="fill:none;stroke:#000000;stroke-linecap:square;stroke-linejoin:miter;stroke-width:0.8;"/>
   </g>
   <g id="patch_5">
    <path d="M 54 252 
L 388.8 252 
" style="fill:none;stroke:#000000;stroke-linecap:square;stroke-linejoin:miter;stroke-width:0.8;"/>
   </g>
   <g id="patch_6">
    <path d="M 54 34.56 
L 388.8 34.56 
" style="fill:none;stroke:#000000;stroke-linecap:square;stroke-linejoin:miter;stroke-width:0.8;"/>
   </g>
  </g>
 </g>
 <defs>
  <clipPath id="p8129e056f9">
   <rect height="217.44" width="334.8" x="54" y="34.56"/>
  </clipPath>
 </defs>
</svg>
